<svg xmlns="http://www.w3.org/2000/svg" xmlns:xlink="http://www.w3.org/1999/xlink" width="80" height="80" viewBox="0 0 80 80"><defs><linearGradient id="linear-gradient" x1="0.5" x2="0.5" y2="1" gradientUnits="objectBoundingBox"><stop offset="0" stop-color="#0059ff"/><stop offset="1" stop-color="#2f9ddb"/></linearGradient><linearGradient id="linear-gradient-2" x1="0.187" y1="0.075" x2="1.251" y2="1" gradientUnits="objectBoundingBox"><stop offset="0" stop-color="#0064d3"/><stop offset="0.453" stop-color="#076ed9"/><stop offset="1" stop-color="#2095f2"/></linearGradient></defs><g id="Rotated_Secrets" data-name="Rotated Secrets" transform="translate(-357 -1116)"><circle id="Ellipse_425" data-name="Ellipse 425" cx="40" cy="40" r="40" transform="translate(357 1116)" fill="#def"/><g id="Rotated_Secrets-2" data-name="Rotated Secrets" transform="translate(1.638)"><g id="Group_8007" data-name="Group 8007" transform="translate(375.362 1148)"><path id="Line_78" data-name="Line 78" d="M20.548,3.229H0V-4H20.548Z" transform="translate(19.09 11.856)" fill="#2962cc"/><path id="Subtraction_1" data-name="Subtraction 1" d="M11.539,23.078A11.542,11.542,0,0,1,7.047.907,11.542,11.542,0,0,1,16.03,22.171,11.467,11.467,0,0,1,11.539,23.078Zm0-15.578a4.039,4.039,0,1,0,4.039,4.039A4.043,4.043,0,0,0,11.539,7.5Z" transform="translate(0 0)" fill="url(#linear-gradient)"/><path id="Line_79" data-name="Line 79" d="M3.229,8.953H-4V0H3.229Z" transform="translate(32.819 13.722)" fill="#2962cc"/></g><g id="dac09f9fb8e0755275b6dc6d4d746685" transform="translate(398.761 1134.883)"><path id="Path_19195" data-name="Path 19195" d="M5.758,2,1.34,2.21,2.6,3.367a7.592,7.592,0,0,0,.21,10.624,7.776,7.776,0,0,0,8.1,1.788l-2.1-2.1a5.01,5.01,0,0,1-4.1-1.473A4.992,4.992,0,0,1,4.39,5.156L5.547,6.313Z" transform="translate(0 0.078)" fill="url(#linear-gradient-2)"/><path id="Path_19196" data-name="Path 19196" d="M10.749,14.7l4.418-.21L13.9,13.334a7.592,7.592,0,0,0-.21-10.624A7.766,7.766,0,0,0,5.7.921l2.1,2.1a5.081,5.081,0,0,1,4.313,8.415L10.96,10.283Z" transform="translate(0.268 0)" fill="url(#linear-gradient-2)"/></g></g></g></svg>