<svg xmlns="http://www.w3.org/2000/svg" xmlns:xlink="http://www.w3.org/1999/xlink" width="80" height="80" viewBox="0 0 80 80"><defs><linearGradient id="linear-gradient" x1="0.5" x2="0.5" y2="1" gradientUnits="objectBoundingBox"><stop offset="0" stop-color="#0059ff"/><stop offset="1" stop-color="#2f9ddb"/></linearGradient><clipPath id="clip-path"><rect id="Rectangle_4022" data-name="Rectangle 4022" width="19.433" height="18.221" transform="translate(0 0)" fill="none"/></clipPath></defs><g id="Dynamic_Secrets" data-name="Dynamic Secrets" transform="translate(-683 -1116)"><g id="Group_7969" data-name="Group 7969" transform="translate(683 1116)"><circle id="Ellipse_425" data-name="Ellipse 425" cx="40" cy="40" r="40" transform="translate(0 0)" fill="#def"/></g><g id="Dynamic_Secrets-2" data-name="Dynamic Secrets" transform="translate(-0.181)"><g id="Group_8043" data-name="Group 8043" transform="translate(703.181 1148)"><path id="Line_78" data-name="Line 78" d="M20.548,3.229H0V-4H20.548Z" transform="translate(19.09 11.856)" fill="#2962cc"/><path id="Subtraction_1" data-name="Subtraction 1" d="M11.539,23.078A11.542,11.542,0,0,1,7.047.907,11.542,11.542,0,0,1,16.03,22.171,11.467,11.467,0,0,1,11.539,23.078Zm0-15.578a4.039,4.039,0,1,0,4.039,4.039A4.043,4.043,0,0,0,11.539,7.5Z" transform="translate(0 0)" fill="url(#linear-gradient)"/><path id="Line_79" data-name="Line 79" d="M3.229,8.953H-4V0H3.229Z" transform="translate(32.819 13.722)" fill="#2962cc"/></g><g id="Group_8044" data-name="Group 8044" transform="translate(724.212 1130.609)"><g id="Group_8044-2" data-name="Group 8044" clip-path="url(#clip-path)"><path id="Path_19214" data-name="Path 19214" d="M19.246,14.157l-6.474,4a.393.393,0,0,1-.6-.335V15.787a.394.394,0,0,0-.394-.394h-5.1A.393.393,0,0,1,6.282,15V12.646a.393.393,0,0,1,.393-.394h5.1a.394.394,0,0,0,.394-.394V9.818a.393.393,0,0,1,.6-.335l6.474,4a.394.394,0,0,1,0,.67" fill="#2962cc"/><path id="Path_19215" data-name="Path 19215" d="M.394,12.252H2.747a.393.393,0,0,1,.394.394V15a.393.393,0,0,1-.394.394H.394A.393.393,0,0,1,0,15V12.646a.393.393,0,0,1,.394-.394" fill="#2962cc"/><path id="Path_19216" data-name="Path 19216" d="M11.786,4.064,5.313.06a.393.393,0,0,0-.6.335v2.04a.394.394,0,0,1-.394.394H.394A.394.394,0,0,0,0,3.223V5.576a.394.394,0,0,0,.394.394H4.318a.394.394,0,0,1,.394.394V8.4a.394.394,0,0,0,.6.335l6.473-4.005a.394.394,0,0,0,0-.67" fill="#2962cc"/></g></g></g></g></svg>