<svg xmlns="http://www.w3.org/2000/svg" width="80" height="80" viewBox="0 0 80 80"><g id="Kubernetes_Secrets" data-name="Kubernetes Secrets" transform="translate(-1009 -1116)"><g id="Group_7969" data-name="Group 7969" transform="translate(1009 1116)"><circle id="Ellipse_425" data-name="Ellipse 425" cx="40" cy="40" r="40" transform="translate(0 0)" fill="#def"/></g><g id="_9b596c463a195a332510c9f6577f9e06" data-name="9b596c463a195a332510c9f6577f9e06" transform="translate(1025.639 1133.872)"><path id="Subtraction_7" data-name="Subtraction 7" d="M13.943,43.362a3.514,3.514,0,0,1-2.764-1.336L.785,29.105A3.487,3.487,0,0,1,.1,26.076L3.814,9.95A3.526,3.526,0,0,1,5.745,7.543L20.771.356a3.536,3.536,0,0,1,3.091,0L38.89,7.513a3.528,3.528,0,0,1,1.93,2.407l3.711,16.125a3.6,3.6,0,0,1-.682,3.03L33.455,42a3.586,3.586,0,0,1-2.763,1.336Zm12.8-9.77c.027,0,.028,0,.058.03a.562.562,0,0,1,.387.267,8.984,8.984,0,0,1,.566,1.331l.056.153V35.4l.09.269c.019.059.036.118.051.175a1.954,1.954,0,0,0,.126.359.469.469,0,0,0,.043.071.644.644,0,0,1,.046.077.1.1,0,0,0,.031.059,1.009,1.009,0,0,0,.89.566.8.8,0,0,0,.357-.089.882.882,0,0,0,.444-.536,1.081,1.081,0,0,0-.059-.743.036.036,0,0,0-.015-.029.039.039,0,0,1-.016-.03.645.645,0,0,0-.088-.148,2.663,2.663,0,0,0-.322-.468l0-.006c-.027-.04-.055-.075-.081-.109l-.013-.016-.007-.009c-.026-.033-.052-.065-.079-.1v-.03l-.063-.1a6.082,6.082,0,0,1-.707-1.3.655.655,0,0,1,.007-.382c.008-.031.016-.061.022-.092a.037.037,0,0,1,.014-.029.039.039,0,0,0,.016-.03l-.148-.358a11.766,11.766,0,0,0,5.168-6.5l.355.059a.042.042,0,0,0,.03-.015.037.037,0,0,1,.029-.015c.025-.012.049-.026.072-.04l.013-.008a.538.538,0,0,1,.3-.1h.06a7.289,7.289,0,0,1,1.546.445h.029a1.1,1.1,0,0,1,.136.06.951.951,0,0,0,.132.059,2.651,2.651,0,0,0,.536.21h0a.352.352,0,0,1,.083.014h.007a.353.353,0,0,0,.087.015.108.108,0,0,1,.089.03.648.648,0,0,0,.237.03.992.992,0,0,0,.951-.684,1.146,1.146,0,0,0-.862-.98h-.03c-.03,0-.059,0-.059-.03a.368.368,0,0,1-.09-.015.391.391,0,0,0-.088-.015l-.071-.011H37a3.408,3.408,0,0,0-.484-.048,1.125,1.125,0,0,1-.3-.029h-.03a7.9,7.9,0,0,1-1.6-.267.567.567,0,0,1-.328-.328.04.04,0,0,0-.015-.03.037.037,0,0,1-.016-.03l-.385-.118a11.743,11.743,0,0,0-.208-4.188,12.221,12.221,0,0,0-1.664-3.891l.3-.266v-.059a.666.666,0,0,1,.148-.445,8.115,8.115,0,0,1,1.284-.89l.008,0,.044-.027a1.231,1.231,0,0,1,.132-.074,1.241,1.241,0,0,0,.135-.075,4.137,4.137,0,0,0,.506-.3.312.312,0,0,1,.05-.039.792.792,0,0,0,.1-.08.179.179,0,0,1,.029-.022c.019-.012.03-.019.03-.037a1,1,0,0,0,.208-1.336.846.846,0,0,0-.684-.326,1.1,1.1,0,0,0-.652.237l-.06.06a.281.281,0,0,0-.071.057.322.322,0,0,1-.076.062,4.466,4.466,0,0,0-.388.414c-.016.017-.033.036-.049.055l-.009.011a.753.753,0,0,1-.148.144,7.806,7.806,0,0,1-1.188,1.069.483.483,0,0,1-.269.089.376.376,0,0,1-.178-.03h-.06l-.355.237a14.333,14.333,0,0,0-1.208-1.12l-.009-.009a11.857,11.857,0,0,0-6.208-2.466l-.03-.386-.059-.06-.023-.021L23.2,10.3A.576.576,0,0,1,23,9.95a9.714,9.714,0,0,1,.077-1.456V8.484l.014-.138v-.03a1.068,1.068,0,0,1,.06-.3c.026-.155.057-.343.089-.565V7.187a.965.965,0,0,0-.921-.98.962.962,0,0,0-.921.98v.237a1.716,1.716,0,0,0,.09.565.906.906,0,0,1,.029.134l0,.013a1.312,1.312,0,0,0,.028.149v.03c.012.125.025.246.038.365a5.451,5.451,0,0,1,.049,1.239.562.562,0,0,1-.2.353l-.007.006-.027.027-.059.059-.03.386a14.8,14.8,0,0,0-1.6.239,11.436,11.436,0,0,0-5.878,3.325l-.3-.207h-.06a.354.354,0,0,0-.088.015.406.406,0,0,1-.09.015.482.482,0,0,1-.267-.089,8.063,8.063,0,0,1-1.187-1.1c-.019-.019-.039-.042-.06-.065a.777.777,0,0,0-.148-.144,5.386,5.386,0,0,0-.387-.415.41.41,0,0,0-.049-.038.631.631,0,0,1-.1-.081.142.142,0,0,0-.033-.024c-.016-.01-.027-.017-.027-.035a1.028,1.028,0,0,0-.654-.239.839.839,0,0,0-.681.328A.99.99,0,0,0,9.9,13.572a.039.039,0,0,1,.029.015.041.041,0,0,0,.03.015.3.3,0,0,1,.074.059.279.279,0,0,0,.074.06,4.106,4.106,0,0,0,.506.3,1.221,1.221,0,0,1,.262.145l.081.05.007,0a7.936,7.936,0,0,1,1.251.869.547.547,0,0,1,.148.445v.06l.3.266c-.016.025-.033.048-.049.071a.679.679,0,0,0-.1.169,11.617,11.617,0,0,0-1.662,7.839l-.387.118a.035.035,0,0,1-.016.03.04.04,0,0,0-.015.029.683.683,0,0,1-.325.329,7.557,7.557,0,0,1-1.605.266H8.479a1.009,1.009,0,0,0-.3.03,3.3,3.3,0,0,0-.477.047H7.694l-.078.012a.36.36,0,0,0-.086.014l-.009,0a.352.352,0,0,1-.081.013.117.117,0,0,0-.092.03.974.974,0,0,0-.77,1.1.918.918,0,0,0,.951.685.648.648,0,0,0,.237-.03c.035,0,.06,0,.06-.03h.007a.316.316,0,0,0,.081-.014A.406.406,0,0,1,8,26.552a2.973,2.973,0,0,0,.536-.207.86.86,0,0,0,.135-.061.956.956,0,0,1,.132-.06h.03a7.336,7.336,0,0,1,1.543-.445h.059a.627.627,0,0,1,.368.135l.02.013a.038.038,0,0,1,.029.015.038.038,0,0,0,.029.015L11.3,25.9a11.833,11.833,0,0,0,3.891,5.585,12.165,12.165,0,0,0,1.277.859l-.179.387a.038.038,0,0,0,.016.03.037.037,0,0,1,.015.03.614.614,0,0,1,.06.474,8.147,8.147,0,0,1-.773,1.4v.03c-.029.044-.059.081-.089.119s-.06.076-.089.119c-.085.107-.153.21-.232.331l-.006.01-.027.041L15.1,35.4a.649.649,0,0,0-.089.148.1.1,0,0,1-.028.058.939.939,0,0,0,.384,1.28.793.793,0,0,0,.358.089,1.06,1.06,0,0,0,.889-.565.1.1,0,0,1,.027-.059.836.836,0,0,1,.091-.149,2.577,2.577,0,0,0,.123-.351c.016-.055.035-.118.058-.183L17,35.4c.014-.041.028-.081.041-.12l.031-.088a5.9,5.9,0,0,1,.55-1.276.611.611,0,0,1,.309-.232c.028-.011.055-.023.079-.035s.031,0,.059-.03l.208-.388a11.618,11.618,0,0,0,4.158.773,10.71,10.71,0,0,0,2.584-.3,13.576,13.576,0,0,0,1.542-.446h0l.178.327ZM22.288,31.78a10,10,0,0,1-3-.477l2.345-4.247a.836.836,0,0,1,.62-.291.68.68,0,0,1,.331.084,1.241,1.241,0,0,1,.354.326L25.228,31.3c-.15.049-.3.088-.467.13-.14.035-.266.068-.395.107A9.594,9.594,0,0,1,22.288,31.78Zm5.019-1.487h0l-1.871-4.482a.8.8,0,0,1,.416-.921.959.959,0,0,1,.417-.088l4.751.8a5.96,5.96,0,0,1-.862,1.812,9.384,9.384,0,0,1-2.849,2.878Zm-10.068,0h0a9.377,9.377,0,0,1-3.711-4.661l4.723-.8a.51.51,0,0,1,.06,0,.8.8,0,0,1,.772.627.841.841,0,0,1-.029.474l-1.812,4.364Zm5.049-6.178h0l-1.3-.622-.33-1.4.893-1.129H23l.891,1.129-.3,1.4-1.3.622Zm9.266-.711h0L27.008,22.1a.8.8,0,0,1-.563-.948.718.718,0,0,1,.178-.329l3.6-3.237A9.517,9.517,0,0,1,31.344,20.4a9.357,9.357,0,0,1,.21,3Zm-18.563,0v0a9.631,9.631,0,0,1,1.336-5.82l3.536,3.148a.791.791,0,0,1,.089,1.1.593.593,0,0,1-.358.237l-4.6,1.338ZM20.06,18.71a.713.713,0,0,1-.357-.089L15.752,15.8a9.12,9.12,0,0,1,4.427-2.434l.418-.078.038-.007.069-.013.426-.079-.269,4.75A.805.805,0,0,1,20.06,18.71Zm4.423-.027a.807.807,0,0,1-.623-.3.651.651,0,0,1-.147-.326l-.267-4.842A9.05,9.05,0,0,1,28.791,15.8L24.9,18.563A.772.772,0,0,1,24.483,18.683Z" transform="translate(0.844 0.447)" fill="#326de6"/></g></g></svg>