<svg xmlns="http://www.w3.org/2000/svg" xmlns:xlink="http://www.w3.org/1999/xlink" width="80" height="80" viewBox="0 0 80 80"><defs><linearGradient id="linear-gradient" x1="0.5" x2="0.5" y2="1" gradientUnits="objectBoundingBox"><stop offset="0" stop-color="#0059ff"/><stop offset="1" stop-color="#2f9ddb"/></linearGradient></defs><g id="Kubernetes_Secrets" data-name="Kubernetes Secrets" transform="translate(-1328 -1116)"><g id="Group_8050" data-name="Group 8050" transform="translate(1328 1116)"><circle id="Ellipse_425" data-name="Ellipse 425" cx="40" cy="40" r="40" transform="translate(0 0)" fill="#def"/></g><g id="Secrets_Sharing" data-name="Secrets Sharing" transform="translate(-0.181)"><g id="Group_8051" data-name="Group 8051" transform="translate(1348.181 1148)"><path id="Line_78" data-name="Line 78" d="M20.548,3.229H0V-4H20.548Z" transform="translate(19.09 11.856)" fill="#2962cc"/><path id="Subtraction_1" data-name="Subtraction 1" d="M11.539,23.078A11.542,11.542,0,0,1,7.047.907,11.542,11.542,0,0,1,16.03,22.171,11.467,11.467,0,0,1,11.539,23.078Zm0-15.578a4.039,4.039,0,1,0,4.039,4.039A4.043,4.043,0,0,0,11.539,7.5Z" transform="translate(0 0)" fill="url(#linear-gradient)"/><path id="Line_79" data-name="Line 79" d="M3.229,8.953H-4V0H3.229Z" transform="translate(32.819 13.722)" fill="#2962cc"/></g><path id="_1750146d66870b73e1f29e902a09a42f" data-name="1750146d66870b73e1f29e902a09a42f" d="M13.432,10.309a1.165,1.165,0,0,0-.479-.068,2.657,2.657,0,0,0-2.123,1.027L7.337,9.693a3.067,3.067,0,0,0,0-1.575L10.83,6.543a2.722,2.722,0,1,0,.342-3.835,2.567,2.567,0,0,0-.959,2.054,1.165,1.165,0,0,0,.068.479L6.653,6.885a2.76,2.76,0,1,0,0,3.972L10.282,12.5a2.64,2.64,0,0,0,2.191,3.15,2.64,2.64,0,0,0,3.15-2.191A2.673,2.673,0,0,0,13.432,10.309Z" transform="translate(1372.149 1135.035)" fill="#2962cc"/></g></g></svg>