<svg xmlns="http://www.w3.org/2000/svg" xmlns:xlink="http://www.w3.org/1999/xlink" width="80" height="80" viewBox="0 0 80 80"><defs><linearGradient id="linear-gradient" x1="0.202" y1="0.051" x2="1" y2="1.139" gradientUnits="objectBoundingBox"><stop offset="0" stop-color="#0064d3"/><stop offset="1" stop-color="#2095f2"/></linearGradient></defs><g id="PKI_Certificates" data-name="PKI Certificates" transform="translate(-683 -1474)"><g id="Group_7969" data-name="Group 7969" transform="translate(683 1474)"><circle id="Ellipse_425" data-name="Ellipse 425" cx="40" cy="40" r="40" transform="translate(0 0)" fill="#def"/></g><g id="PKI_Certificates-2" data-name="PKI Certificates" transform="translate(493.858 14)"><path id="diploma_1_" data-name="diploma (1)" d="M32.212,31.761v4.678a1.721,1.721,0,0,1-2.937,1.216l-1.833-1.833-1.833,1.833a1.721,1.721,0,0,1-2.937-1.216V31.761A7.933,7.933,0,0,1,29.032,17.65v-8.9A3.975,3.975,0,0,0,25.057,4.77l-14.3.06A3.975,3.975,0,0,0,6.77,8.806V27.827A3.975,3.975,0,0,0,10.746,31.8h6.361a2.385,2.385,0,0,1,0,4.77H10.746A8.757,8.757,0,0,1,2,27.827V8.806A8.757,8.757,0,0,1,10.746.06L25.046,0A8.76,8.76,0,0,1,33.8,8.746V20.721a7.842,7.842,0,0,1-1.59,11.04Zm-7.951-6.319a3.18,3.18,0,1,0,3.18-3.18A3.18,3.18,0,0,0,24.262,25.442Z" transform="translate(210.142 1481)" fill="url(#linear-gradient)"/><path id="Path_19220" data-name="Path 19220" d="M.586,0H2.427V-1.841H3.545A2.324,2.324,0,0,0,6-4.282,2.336,2.336,0,0,0,3.521-6.641H.586ZM2.427-3.472V-5.01H3.442a.764.764,0,0,1,.713.728.768.768,0,0,1-.718.811Zm7.92-.205,2.295-2.964H10.508L8.5-3.936V-6.641H6.655V0H8.5V-1.5l.649-.854L10.747,0h2.168ZM13.5,0h1.841V-6.641H13.5Z" transform="translate(219.838 1495.672)" fill="#056cd8"/><path id="Line_361" data-name="Line 361" d="M3,2H0A2,2,0,0,1-2,0,2,2,0,0,1,0-2H3A2,2,0,0,1,5,0,2,2,0,0,1,3,2Z" transform="translate(222.338 1500.08)" fill="#0369d6"/><path id="Line_362" data-name="Line 362" d="M3,2H0A2,2,0,0,1-2,0,2,2,0,0,1,0-2H3A2,2,0,0,1,5,0,2,2,0,0,1,3,2Z" transform="translate(222.338 1506.08)" fill="#0369d6"/></g></g></svg>