<svg xmlns="http://www.w3.org/2000/svg" xmlns:xlink="http://www.w3.org/1999/xlink" width="80" height="80" viewBox="0 0 80 80"><defs><linearGradient id="linear-gradient" x1="0.5" x2="0.5" y2="1" gradientUnits="objectBoundingBox"><stop offset="0" stop-color="#0059ff"/><stop offset="1" stop-color="#2f9ddb"/></linearGradient></defs><g id="External_Secrets_Manager" data-name="External Secrets Manager" transform="translate(-1010 -1474)"><circle id="Ellipse_458" data-name="Ellipse 458" cx="40" cy="40" r="40" transform="translate(1010 1474)" fill="#def"/><g id="External_Secrets" data-name="External Secrets" transform="translate(846.696 -111.961)"><g id="Group_8057" data-name="Group 8057" transform="translate(183.304 1617.961)"><path id="Line_78" data-name="Line 78" d="M20.548,3.229H0V-4H20.548Z" transform="translate(19.09 11.856)" fill="#2962cc"/><path id="Subtraction_1" data-name="Subtraction 1" d="M11.539,23.078A11.542,11.542,0,0,1,7.047.907,11.542,11.542,0,0,1,16.03,22.171,11.467,11.467,0,0,1,11.539,23.078Zm0-15.578a4.039,4.039,0,1,0,4.039,4.039A4.043,4.043,0,0,0,11.539,7.5Z" transform="translate(0 0)" fill="url(#linear-gradient)"/><path id="Line_79" data-name="Line 79" d="M3.229,8.953H-4V0H3.229Z" transform="translate(32.819 13.722)" fill="#2962cc"/></g><g id="Group_8056" data-name="Group 8056" transform="translate(207.8 1605.642)"><path id="Path_19221" data-name="Path 19221" d="M176.028,171.444a.444.444,0,0,0-.444-.444h-4.14a.444.444,0,0,0-.444.444v4.14a.444.444,0,0,0,.444.444h4.14a.444.444,0,0,0,.444-.444Z" transform="translate(-165.943 -165.943)" fill="#2962cc"/><path id="Path_19222" data-name="Path 19222" d="M339.88,4.992a.444.444,0,0,0,.627,0l1.631-1.631.671.671a.444.444,0,0,0,.755-.265l.364-3.275a.444.444,0,0,0-.49-.49l-3.275.364a.444.444,0,0,0-.265.755l.671.671-1.631,1.631a.444.444,0,0,0,0,.627Z" transform="translate(-328.788 0)" fill="#2962cc"/><path id="Path_19223" data-name="Path 19223" d="M.367,3.767a.444.444,0,0,0,.755.265l.671-.671L3.424,4.992a.444.444,0,0,0,.627,0l.941-.941a.444.444,0,0,0,0-.627L3.361,1.792l.671-.671A.444.444,0,0,0,3.767.367L.493,0A.444.444,0,0,0,0,.493Z" transform="translate(0 0)" fill="#2962cc"/><path id="Path_19224" data-name="Path 19224" d="M343.564,340.163a.444.444,0,0,0-.755-.265l-.671.671-1.631-1.631a.444.444,0,0,0-.627,0l-.941.941a.444.444,0,0,0,0,.627l1.631,1.631-.671.671a.444.444,0,0,0,.265.755l3.275.364a.444.444,0,0,0,.49-.49Z" transform="translate(-328.788 -328.788)" fill="#2962cc"/><path id="Path_19225" data-name="Path 19225" d="M4.051,338.938a.444.444,0,0,0-.627,0L1.792,340.57l-.671-.671a.444.444,0,0,0-.755.265L0,343.438a.444.444,0,0,0,.49.49l3.275-.364a.444.444,0,0,0,.265-.755l-.671-.671,1.631-1.631a.444.444,0,0,0,0-.627Z" transform="translate(0 -328.788)" fill="#2962cc"/></g></g></g></svg>