<svg width="1920" height="360" viewBox="0 0 1920 360" fill="none" xmlns="http://www.w3.org/2000/svg">
<g clip-path="url(#clip0_819_106)">
<path d="M0 0H1920V360H0V0Z" fill="#0D0F23"/>
<mask id="mask0_819_106" style="mask-type:luminance" maskUnits="userSpaceOnUse" x="0" y="23" width="468" height="314">
<path d="M468 23H0V337H468V23Z" fill="white"/>
</mask>
<g mask="url(#mask0_819_106)">
<path d="M370.588 235.887H458.929V233.067H371.808L325.923 187.182H169.287L120.658 138.552H-168.45V141.372H119.515L168.144 190.001H324.703L370.588 235.887Z" fill="#3C63CB"/>
<path d="M365.711 213.018L367.693 210.96L332.631 175.898H172.413L122.03 125.518H-162.047V128.338H120.887L171.269 178.797H331.487L365.711 213.018Z" fill="#3C63CB"/>
<path d="M174.395 85.3496H262.736V82.5296H175.615L129.73 36.6446H-26.9061L-75.5361 -11.9854H-202.978V-9.16535H-76.678L-28.1251 39.4636H128.51L174.395 85.3496Z" fill="#3C63CB"/>
<path d="M169.516 62.4805L171.498 60.4225L136.436 25.3605H-23.7811L-74.1641 -25.0195H-207.475V-22.1995H-75.3831L-24.925 28.1805H135.293L169.516 62.4805Z" fill="#3C63CB"/>
<path d="M240.097 149.526H379.735V146.626H241.317L206.636 112.026H-134.074V114.846H205.493L240.097 149.526Z" fill="#3C63CB"/>
<path d="M316.777 97.6201H-177.596V100.44H316.777V97.6201Z" fill="#3C63CB"/>
<path d="M149.318 82.5293H-159.608V85.3493H149.318V82.5293Z" fill="#3C63CB"/>
<path d="M246.424 330.247H386.062V327.427H247.567L212.967 292.746H-187.2V295.647H211.743L246.424 330.247Z" fill="#3C63CB"/>
<path d="M323.027 278.343H-188.191V281.163H323.027V278.343Z" fill="#3C63CB"/>
<path d="M155.644 263.25H-108.387V266.07H155.644V263.25Z" fill="#3C63CB"/>
<path d="M226.073 327.429H-188.191V330.249H226.073V327.429Z" fill="#3C63CB"/>
<path d="M109.378 66.9795H-202.063V69.7995H109.378V66.9795Z" fill="#3C63CB"/>
<path d="M123.479 52.4219H-187.962V55.2419H123.479V52.4219Z" fill="#3C63CB"/>
<path d="M155.644 312.337H-27.8213V315.157H155.644V312.337Z" fill="#3C63CB"/>
<path d="M147.87 188.705L149.928 186.647L115.704 152.5H-105.719V155.4H114.561L147.87 188.705Z" fill="#3C63CB"/>
<path d="M175.462 237.564H287.053V234.744H176.605L109.911 168.05H-208.847V170.87H108.692L175.462 237.564Z" fill="#3C63CB"/>
<path d="M180.645 265.689L182.703 263.707L99.3928 180.397H-208.618V183.297H98.2498L180.645 265.689Z" fill="#3C63CB"/>
<path d="M102.67 237.411H-53.5083V240.231H102.67V237.411Z" fill="#3C63CB"/>
<path d="M131.329 239.849L133.387 237.791L89.1028 193.583H-146.803V196.403H87.9588L131.329 239.849Z" fill="#3C63CB"/>
<path d="M317.234 95.334C316.244 95.3356 315.295 95.7296 314.595 96.4297C313.895 97.1298 313.501 98.0789 313.499 99.069C313.501 100.059 313.895 101.008 314.595 101.708C315.295 102.408 316.244 102.802 317.234 102.804C318.224 102.802 319.173 102.408 319.873 101.708C320.573 101.008 320.967 100.059 320.969 99.069C320.967 98.0789 320.573 97.1298 319.873 96.4297C319.173 95.7296 318.224 95.3356 317.234 95.334Z" fill="#3C63CB"/>
<path d="M264.565 80.2422C263.575 80.2438 262.625 80.6378 261.925 81.3379C261.225 82.038 260.831 82.9871 260.83 83.9772C260.831 84.9673 261.225 85.9164 261.925 86.6165C262.625 87.3166 263.575 87.7106 264.565 87.7122C265.555 87.7106 266.504 87.3166 267.204 86.6165C267.904 85.9164 268.298 84.9673 268.3 83.9772C268.298 82.9871 267.904 82.038 267.204 81.3379C266.504 80.6378 265.555 80.2438 264.565 80.2422Z" fill="#3C63CB"/>
<path d="M151.147 80.2422C150.157 80.2438 149.208 80.6378 148.508 81.3379C147.808 82.038 147.414 82.9871 147.412 83.9772C147.414 84.9673 147.808 85.9164 148.508 86.6165C149.208 87.3166 150.157 87.7106 151.147 87.7122C152.137 87.7106 153.086 87.3166 153.786 86.6165C154.486 85.9164 154.88 84.9673 154.882 83.9772C154.88 82.9871 154.486 82.038 153.786 81.3379C153.086 80.6378 152.137 80.2438 151.147 80.2422Z" fill="#3C63CB"/>
<path d="M109.378 64.6934C108.388 64.6949 107.439 65.089 106.739 65.7891C106.039 66.4892 105.645 67.4383 105.643 68.4284C105.645 69.4185 106.039 70.3676 106.739 71.0677C107.439 71.7678 108.388 72.1618 109.378 72.1634C110.368 72.1618 111.317 71.7678 112.017 71.0677C112.717 70.3676 113.111 69.4185 113.113 68.4284C113.111 67.4383 112.717 66.4892 112.017 65.7891C111.317 65.089 110.368 64.6949 109.378 64.6934Z" fill="#3C63CB"/>
<path d="M124.851 50.0588C123.861 50.0604 122.912 50.4544 122.211 51.1546C121.511 51.8547 121.117 52.8037 121.116 53.7938C121.117 54.7839 121.511 55.733 122.211 56.4331C122.912 57.1332 123.861 57.5273 124.851 57.5288C125.841 57.5273 126.79 57.1332 127.49 56.4331C128.19 55.733 128.584 54.7839 128.586 53.7938C128.591 53.3018 128.499 52.8136 128.313 52.3579C128.127 51.9022 127.852 51.4882 127.504 51.1403C127.156 50.7923 126.742 50.5174 126.287 50.3317C125.831 50.146 125.343 50.0532 124.851 50.0588Z" fill="#3C63CB"/>
<path d="M170.508 57.6807C169.518 57.6823 168.569 58.0763 167.869 58.7764C167.169 59.4765 166.775 60.4256 166.773 61.4157C166.775 62.4058 167.169 63.3549 167.869 64.055C168.569 64.7551 169.518 65.1491 170.508 65.1507C171.498 65.1491 172.447 64.7551 173.147 64.055C173.847 63.3549 174.241 62.4058 174.243 61.4157C174.241 60.4256 173.847 59.4765 173.147 58.7764C172.447 58.0763 171.498 57.6823 170.508 57.6807Z" fill="#3C63CB"/>
<path d="M379.735 144.345C378.745 144.346 377.796 144.74 377.096 145.44C376.396 146.141 376.002 147.09 376 148.08C376.002 149.07 376.396 150.019 377.096 150.719C377.796 151.419 378.745 151.813 379.735 151.815C380.725 151.813 381.674 151.419 382.374 150.719C383.074 150.019 383.468 149.07 383.47 148.08C383.468 147.09 383.074 146.141 382.374 145.44C381.674 144.74 380.725 144.346 379.735 144.345Z" fill="#3C63CB" stroke="#3D63CC" stroke-miterlimit="10"/>
<path d="M458.929 230.779C457.939 230.781 456.99 231.175 456.29 231.875C455.589 232.575 455.195 233.524 455.194 234.514C455.195 235.504 455.589 236.453 456.29 237.154C456.99 237.854 457.939 238.248 458.929 238.249C459.919 238.248 460.868 237.854 461.568 237.154C462.268 236.453 462.662 235.504 462.664 234.514C462.662 233.524 462.268 232.575 461.568 231.875C460.868 231.175 459.919 230.781 458.929 230.779Z" fill="#3C63CB" stroke="#3D63CC" stroke-miterlimit="10"/>
<path d="M366.701 208.219C365.711 208.22 364.762 208.614 364.062 209.314C363.361 210.015 362.967 210.964 362.966 211.954C362.967 212.944 363.361 213.893 364.062 214.593C364.762 215.293 365.711 215.687 366.701 215.689C367.691 215.687 368.64 215.293 369.34 214.593C370.04 213.893 370.434 212.944 370.436 211.954C370.434 210.964 370.04 210.015 369.34 209.314C368.64 208.614 367.691 208.22 366.701 208.219Z" fill="#3C63CB" stroke="#3D63CC" stroke-miterlimit="10"/>
<path d="M323.026 276.056C322.036 276.057 321.087 276.451 320.387 277.151C319.687 277.851 319.293 278.801 319.291 279.791C319.293 280.781 319.687 281.73 320.387 282.43C321.087 283.13 322.036 283.524 323.026 283.526C324.016 283.524 324.965 283.13 325.665 282.43C326.365 281.73 326.759 280.781 326.761 279.791C326.759 278.801 326.365 277.851 325.665 277.151C324.965 276.451 324.016 276.057 323.026 276.056Z" fill="#3C63CB" stroke="#3D63CC" stroke-miterlimit="10"/>
<path d="M287.05 232.457C286.06 232.459 285.111 232.853 284.411 233.553C283.711 234.253 283.317 235.202 283.315 236.192C283.317 237.182 283.711 238.131 284.411 238.831C285.111 239.531 286.06 239.925 287.05 239.927C288.04 239.925 288.989 239.531 289.689 238.831C290.389 238.131 290.783 237.182 290.785 236.192C290.783 235.202 290.389 234.253 289.689 233.553C288.989 232.853 288.04 232.459 287.05 232.457Z" fill="#3C63CB" stroke="#3D63CC" stroke-miterlimit="10"/>
<path d="M181.712 260.964C180.722 260.965 179.773 261.359 179.073 262.06C178.373 262.76 177.979 263.709 177.977 264.699C177.979 265.689 178.373 266.638 179.073 267.338C179.773 268.038 180.722 268.432 181.712 268.434C182.702 268.432 183.651 268.038 184.351 267.338C185.051 266.638 185.445 265.689 185.447 264.699C185.445 263.709 185.051 262.76 184.351 262.06C183.651 261.359 182.702 260.965 181.712 260.964Z" fill="#3D63CC" stroke="#3D63CC" stroke-miterlimit="10"/>
<path d="M155.644 260.964C154.654 260.965 153.705 261.359 153.005 262.06C152.305 262.76 151.911 263.709 151.909 264.699C151.911 265.689 152.305 266.638 153.005 267.338C153.705 268.038 154.654 268.432 155.644 268.434C156.634 268.432 157.583 268.038 158.283 267.338C158.984 266.638 159.378 265.689 159.379 264.699C159.378 263.709 158.984 262.76 158.283 262.06C157.583 261.359 156.634 260.965 155.644 260.964Z" fill="#3D63CC" stroke="#3D63CC" stroke-miterlimit="10"/>
<path d="M104.652 235.124C103.662 235.126 102.713 235.52 102.013 236.22C101.313 236.92 100.919 237.869 100.917 238.859C100.919 239.849 101.313 240.798 102.013 241.499C102.713 242.199 103.662 242.593 104.652 242.594C105.642 242.593 106.591 242.199 107.291 241.499C107.991 240.798 108.385 239.849 108.387 238.859C108.393 238.367 108.3 237.879 108.114 237.423C107.928 236.968 107.653 236.554 107.306 236.206C106.958 235.858 106.544 235.583 106.088 235.397C105.632 235.211 105.144 235.119 104.652 235.124Z" fill="#3D63CC" stroke="#3D63CC" stroke-miterlimit="10"/>
<path d="M132.32 235.125C131.33 235.127 130.381 235.521 129.681 236.221C128.981 236.921 128.587 237.87 128.585 238.86C128.587 239.85 128.981 240.799 129.681 241.499C130.381 242.2 131.33 242.594 132.32 242.595C133.31 242.594 134.259 242.2 134.959 241.499C135.659 240.799 136.053 239.85 136.055 238.86C136.067 238.366 135.979 237.875 135.795 237.417C135.612 236.958 135.337 236.541 134.988 236.192C134.639 235.843 134.222 235.568 133.763 235.385C133.305 235.201 132.814 235.113 132.32 235.125Z" fill="#3D63CC" stroke="#3D63CC" stroke-miterlimit="10"/>
<path d="M149.318 183.523C148.328 183.524 147.379 183.918 146.679 184.618C145.979 185.319 145.585 186.268 145.583 187.258C145.585 188.248 145.979 189.197 146.679 189.897C147.379 190.597 148.328 190.991 149.318 190.993C150.308 190.991 151.257 190.597 151.957 189.897C152.657 189.197 153.051 188.248 153.053 187.258C153.059 186.766 152.966 186.277 152.78 185.822C152.594 185.366 152.32 184.952 151.972 184.604C151.624 184.256 151.21 183.981 150.754 183.796C150.298 183.61 149.81 183.517 149.318 183.523Z" fill="#3C63CB" stroke="#3D63CC" stroke-miterlimit="10"/>
<path d="M226.073 325.142C225.083 325.143 224.134 325.537 223.434 326.237C222.733 326.937 222.339 327.887 222.338 328.877C222.339 329.867 222.733 330.816 223.434 331.516C224.134 332.216 225.083 332.61 226.073 332.612C227.063 332.61 228.012 332.216 228.712 331.516C229.412 330.816 229.806 329.867 229.808 328.877C229.806 327.887 229.412 326.937 228.712 326.237C228.012 325.537 227.063 325.143 226.073 325.142Z" fill="#3D63CC" stroke="#3D63CC" stroke-miterlimit="10"/>
<path d="M157.321 310.051C156.331 310.052 155.382 310.446 154.682 311.146C153.982 311.847 153.588 312.796 153.586 313.786C153.588 314.776 153.982 315.725 154.682 316.425C155.382 317.125 156.331 317.519 157.321 317.521C158.311 317.519 159.26 317.125 159.96 316.425C160.66 315.725 161.054 314.776 161.056 313.786C161.054 312.796 160.66 311.847 159.96 311.146C159.26 310.446 158.311 310.052 157.321 310.051Z" fill="#3D63CC" stroke="#3D63CC" stroke-miterlimit="10"/>
<path d="M386.062 325.142C385.072 325.143 384.123 325.537 383.423 326.237C382.723 326.937 382.329 327.887 382.327 328.877C382.329 329.867 382.723 330.816 383.423 331.516C384.123 332.216 385.072 332.61 386.062 332.612C387.052 332.61 388.001 332.216 388.702 331.516C389.402 330.816 389.796 329.867 389.797 328.877C389.796 327.887 389.402 326.937 388.702 326.237C388.001 325.537 387.052 325.143 386.062 325.142Z" fill="#3D63CC" stroke="#3D63CC" stroke-miterlimit="10"/>
</g>
<mask id="mask1_819_106" style="mask-type:luminance" maskUnits="userSpaceOnUse" x="1452" y="23" width="468" height="314">
<path d="M1920 23H1452V337H1920V23Z" fill="white"/>
</mask>
<g mask="url(#mask1_819_106)">
<path d="M1549.41 235.887H1461.07V233.067H1548.19L1594.08 187.182H1750.71L1799.34 138.553H2088.45V141.373H1800.48L1751.86 190.002H1595.3L1549.41 235.887Z" fill="#3C63CB"/>
<path d="M1554.29 213.018L1552.31 210.96L1587.37 175.898H1747.59L1797.97 125.516H2082.05V128.336H1799.11L1748.73 178.795H1588.51L1554.29 213.018Z" fill="#3C63CB"/>
<path d="M1745.6 85.3496H1657.26V82.5296H1744.38L1790.27 36.6446H1946.9L1995.53 -11.9844H2122.98V-9.16438H1996.68L1948.12 39.4646H1791.49L1745.6 85.3496Z" fill="#3C63CB"/>
<path d="M1750.48 62.4805L1748.5 60.4225L1783.56 25.3605H1943.78L1994.16 -25.0195H2127.47V-22.1995H1995.38L1944.92 28.1805H1784.71L1750.48 62.4805Z" fill="#3C63CB"/>
<path d="M1679.9 149.526H1540.26V146.626H1678.68L1713.36 112.026H2054.07V114.846H1714.51L1679.9 149.526Z" fill="#3C63CB"/>
<path d="M2097.6 97.6201H1603.22V100.44H2097.6V97.6201Z" fill="#3C63CB"/>
<path d="M2079.61 82.5293H1770.68V85.3493H2079.61V82.5293Z" fill="#3C63CB"/>
<path d="M1673.58 330.247H1533.94V327.427H1672.43L1707.03 292.746H2107.2V295.647H1708.26L1673.58 330.247Z" fill="#3C63CB"/>
<path d="M2108.19 278.343H1596.97V281.163H2108.19V278.343Z" fill="#3C63CB"/>
<path d="M2028.39 263.25H1764.35V266.07H2028.39V263.25Z" fill="#3C63CB"/>
<path d="M1693.93 327.429H2108.19V330.249H1693.93V327.429Z" fill="#3C63CB"/>
<path d="M2122.06 66.9795H1810.62V69.7995H2122.06V66.9795Z" fill="#3C63CB"/>
<path d="M2107.96 52.4219H1796.52V55.2419H2107.96V52.4219Z" fill="#3C63CB"/>
<path d="M1947.82 312.337H1764.35V315.157H1947.82V312.337Z" fill="#3C63CB"/>
<path d="M1772.13 188.705L1770.07 186.647L1804.29 152.5H2025.72V155.4H1805.44L1772.13 188.705Z" fill="#3C63CB"/>
<path d="M1744.54 237.564H1632.95V234.744H1743.39L1810.09 168.05H2128.85V170.87H1811.31L1744.54 237.564Z" fill="#3C63CB"/>
<path d="M1739.35 265.689L1737.3 263.707L1820.61 180.397H2128.62V183.297H1821.75L1739.35 265.689Z" fill="#3C63CB"/>
<path d="M1973.51 237.411H1817.33V240.231H1973.51V237.411Z" fill="#3C63CB"/>
<path d="M1788.67 239.849L1786.61 237.791L1830.9 193.583H2066.8V196.403H1832.04L1788.67 239.849Z" fill="#3C63CB"/>
<path d="M1602.77 95.334C1603.76 95.3356 1604.71 95.7296 1605.41 96.4297C1606.11 97.1298 1606.5 98.0789 1606.5 99.069C1606.5 100.059 1606.11 101.008 1605.41 101.708C1604.71 102.408 1603.76 102.802 1602.77 102.804C1601.78 102.802 1600.83 102.408 1600.13 101.708C1599.43 101.008 1599.03 100.059 1599.03 99.069C1599.03 98.0789 1599.43 97.1298 1600.13 96.4297C1600.83 95.7296 1601.78 95.3356 1602.77 95.334Z" fill="#3C63CB"/>
<path d="M1655.43 80.2422C1656.43 80.2438 1657.37 80.6378 1658.07 81.3379C1658.77 82.038 1659.17 82.9871 1659.17 83.9772C1659.17 84.9673 1658.77 85.9164 1658.07 86.6165C1657.37 87.3166 1656.43 87.7106 1655.43 87.7122C1654.44 87.7106 1653.5 87.3166 1652.8 86.6165C1652.1 85.9164 1651.7 84.9673 1651.7 83.9772C1651.7 82.9871 1652.1 82.038 1652.8 81.3379C1653.5 80.6378 1654.44 80.2438 1655.43 80.2422Z" fill="#3C63CB"/>
<path d="M1768.85 80.2422C1769.84 80.2438 1770.79 80.6378 1771.49 81.3379C1772.19 82.038 1772.59 82.9871 1772.59 83.9772C1772.59 84.9673 1772.19 85.9164 1771.49 86.6165C1770.79 87.3166 1769.84 87.7106 1768.85 87.7122C1767.86 87.7106 1766.91 87.3166 1766.21 86.6165C1765.51 85.9164 1765.12 84.9673 1765.12 83.9772C1765.12 82.9871 1765.51 82.038 1766.21 81.3379C1766.91 80.6378 1767.86 80.2438 1768.85 80.2422Z" fill="#3C63CB"/>
<path d="M1810.62 64.6934C1811.61 64.6949 1812.56 65.089 1813.26 65.7891C1813.96 66.4892 1814.36 67.4383 1814.36 68.4284C1814.36 69.4185 1813.96 70.3676 1813.26 71.0677C1812.56 71.7678 1811.61 72.1618 1810.62 72.1634C1809.63 72.1618 1808.68 71.7678 1807.98 71.0677C1807.28 70.3676 1806.89 69.4185 1806.89 68.4284C1806.89 67.4383 1807.28 66.4892 1807.98 65.7891C1808.68 65.089 1809.63 64.6949 1810.62 64.6934Z" fill="#3C63CB"/>
<path d="M1795.15 50.0588C1796.14 50.0604 1797.09 50.4544 1797.79 51.1546C1798.49 51.8547 1798.88 52.8037 1798.88 53.7938C1798.88 54.7839 1798.49 55.733 1797.79 56.4331C1797.09 57.1332 1796.14 57.5273 1795.15 57.5288C1794.16 57.5273 1793.21 57.1332 1792.51 56.4331C1791.81 55.733 1791.42 54.7839 1791.41 53.7938C1791.41 53.3018 1791.5 52.8136 1791.69 52.3579C1791.87 51.9022 1792.15 51.4882 1792.5 51.1403C1792.84 50.7923 1793.26 50.5174 1793.71 50.3317C1794.17 50.146 1794.66 50.0532 1795.15 50.0588Z" fill="#3C63CB"/>
<path d="M1749.49 57.6807C1750.48 57.6823 1751.43 58.0763 1752.13 58.7764C1752.83 59.4765 1753.23 60.4256 1753.23 61.4157C1753.23 62.4058 1752.83 63.3549 1752.13 64.055C1751.43 64.7551 1750.48 65.1491 1749.49 65.1507C1748.5 65.1491 1747.55 64.7551 1746.85 64.055C1746.15 63.3549 1745.76 62.4058 1745.76 61.4157C1745.76 60.4256 1746.15 59.4765 1746.85 58.7764C1747.55 58.0763 1748.5 57.6823 1749.49 57.6807Z" fill="#3C63CB"/>
<path d="M1540.26 144.345C1541.25 144.346 1542.2 144.74 1542.9 145.44C1543.6 146.141 1544 147.09 1544 148.08C1544 149.07 1543.6 150.019 1542.9 150.719C1542.2 151.419 1541.25 151.813 1540.26 151.815C1539.27 151.813 1538.32 151.419 1537.62 150.719C1536.92 150.019 1536.53 149.07 1536.53 148.08C1536.53 147.09 1536.92 146.141 1537.62 145.44C1538.32 144.74 1539.27 144.346 1540.26 144.345Z" fill="#3C63CB" stroke="#3D63CC" stroke-miterlimit="10"/>
<path d="M1461.07 230.779C1462.06 230.781 1463.01 231.175 1463.71 231.875C1464.41 232.575 1464.8 233.524 1464.8 234.514C1464.8 235.504 1464.41 236.453 1463.71 237.154C1463.01 237.854 1462.06 238.248 1461.07 238.249C1460.08 238.248 1459.13 237.854 1458.43 237.154C1457.73 236.453 1457.34 235.504 1457.33 234.514C1457.34 233.524 1457.73 232.575 1458.43 231.875C1459.13 231.175 1460.08 230.781 1461.07 230.779Z" fill="#3C63CB" stroke="#3D63CC" stroke-miterlimit="10"/>
<path d="M1553.3 208.219C1554.29 208.22 1555.24 208.614 1555.94 209.314C1556.64 210.015 1557.03 210.964 1557.03 211.954C1557.03 212.944 1556.64 213.893 1555.94 214.593C1555.24 215.293 1554.29 215.687 1553.3 215.689C1552.31 215.687 1551.36 215.293 1550.66 214.593C1549.96 213.893 1549.56 212.944 1549.56 211.954C1549.56 210.964 1549.96 210.015 1550.66 209.314C1551.36 208.614 1552.31 208.22 1553.3 208.219Z" fill="#3C63CB" stroke="#3D63CC" stroke-miterlimit="10"/>
<path d="M1596.97 276.056C1597.96 276.057 1598.91 276.451 1599.61 277.151C1600.31 277.851 1600.71 278.801 1600.71 279.791C1600.71 280.781 1600.31 281.73 1599.61 282.43C1598.91 283.13 1597.96 283.524 1596.97 283.526C1595.98 283.524 1595.03 283.13 1594.33 282.43C1593.63 281.73 1593.24 280.781 1593.24 279.791C1593.24 278.801 1593.63 277.851 1594.33 277.151C1595.03 276.451 1595.98 276.057 1596.97 276.056Z" fill="#3C63CB" stroke="#3D63CC" stroke-miterlimit="10"/>
<path d="M1632.95 232.457C1633.94 232.459 1634.89 232.853 1635.59 233.553C1636.29 234.253 1636.68 235.202 1636.68 236.192C1636.68 237.182 1636.29 238.131 1635.59 238.831C1634.89 239.531 1633.94 239.925 1632.95 239.927C1631.96 239.925 1631.01 239.531 1630.31 238.831C1629.61 238.131 1629.22 237.182 1629.21 236.192C1629.22 235.202 1629.61 234.253 1630.31 233.553C1631.01 232.853 1631.96 232.459 1632.95 232.457Z" fill="#3C63CB" stroke="#3D63CC" stroke-miterlimit="10"/>
<path d="M1738.29 260.964C1739.28 260.965 1740.23 261.359 1740.93 262.06C1741.63 262.76 1742.02 263.709 1742.02 264.699C1742.02 265.689 1741.63 266.638 1740.93 267.338C1740.23 268.038 1739.28 268.432 1738.29 268.434C1737.3 268.432 1736.35 268.038 1735.65 267.338C1734.95 266.638 1734.55 265.689 1734.55 264.699C1734.55 263.709 1734.95 262.76 1735.65 262.06C1736.35 261.359 1737.3 260.965 1738.29 260.964Z" fill="#3D63CC" stroke="#3D63CC" stroke-miterlimit="10"/>
<path d="M1764.35 260.964C1765.34 260.965 1766.29 261.359 1766.99 262.06C1767.69 262.76 1768.09 263.709 1768.09 264.699C1768.09 265.689 1767.69 266.638 1766.99 267.338C1766.29 268.038 1765.34 268.432 1764.35 268.434C1763.36 268.432 1762.42 268.038 1761.72 267.338C1761.02 266.638 1760.62 265.689 1760.62 264.699C1760.62 263.709 1761.02 262.76 1761.72 262.06C1762.42 261.359 1763.36 260.965 1764.35 260.964Z" fill="#3D63CC" stroke="#3D63CC" stroke-miterlimit="10"/>
<path d="M1815.35 235.124C1816.34 235.126 1817.29 235.52 1817.99 236.22C1818.69 236.92 1819.08 237.869 1819.08 238.859C1819.08 239.849 1818.69 240.798 1817.99 241.499C1817.29 242.199 1816.34 242.593 1815.35 242.594C1814.36 242.593 1813.41 242.199 1812.71 241.499C1812.01 240.798 1811.61 239.849 1811.61 238.859C1811.61 238.367 1811.7 237.879 1811.88 237.423C1812.07 236.968 1812.35 236.554 1812.69 236.206C1813.04 235.858 1813.46 235.583 1813.91 235.397C1814.37 235.211 1814.85 235.119 1815.35 235.124Z" fill="#3D63CC" stroke="#3D63CC" stroke-miterlimit="10"/>
<path d="M1787.68 235.125C1788.67 235.127 1789.62 235.521 1790.32 236.221C1791.02 236.921 1791.41 237.87 1791.41 238.86C1791.41 239.85 1791.02 240.799 1790.32 241.499C1789.62 242.2 1788.67 242.594 1787.68 242.595C1786.69 242.594 1785.74 242.2 1785.04 241.499C1784.34 240.799 1783.95 239.85 1783.94 238.86C1783.93 238.366 1784.02 237.875 1784.2 237.417C1784.39 236.958 1784.66 236.541 1785.01 236.192C1785.36 235.843 1785.78 235.568 1786.24 235.385C1786.69 235.201 1787.19 235.113 1787.68 235.125Z" fill="#3D63CC" stroke="#3D63CC" stroke-miterlimit="10"/>
<path d="M1770.68 183.523C1771.67 183.524 1772.62 183.918 1773.32 184.618C1774.02 185.319 1774.42 186.268 1774.42 187.258C1774.42 188.248 1774.02 189.197 1773.32 189.897C1772.62 190.597 1771.67 190.991 1770.68 190.993C1769.69 190.991 1768.74 190.597 1768.04 189.897C1767.34 189.197 1766.95 188.248 1766.95 187.258C1766.94 186.766 1767.03 186.277 1767.22 185.822C1767.41 185.366 1767.68 184.952 1768.03 184.604C1768.38 184.256 1768.79 183.981 1769.25 183.796C1769.7 183.61 1770.19 183.517 1770.68 183.523Z" fill="#3C63CB" stroke="#3D63CC" stroke-miterlimit="10"/>
<path d="M1693.93 325.142C1694.92 325.143 1695.87 325.537 1696.57 326.237C1697.27 326.937 1697.66 327.887 1697.66 328.877C1697.66 329.867 1697.27 330.816 1696.57 331.516C1695.87 332.216 1694.92 332.61 1693.93 332.612C1692.94 332.61 1691.99 332.216 1691.29 331.516C1690.59 330.816 1690.19 329.867 1690.19 328.877C1690.19 327.887 1690.59 326.937 1691.29 326.237C1691.99 325.537 1692.94 325.143 1693.93 325.142Z" fill="#3D63CC" stroke="#3D63CC" stroke-miterlimit="10"/>
<path d="M1762.68 310.051C1763.67 310.052 1764.62 310.446 1765.32 311.146C1766.02 311.847 1766.41 312.796 1766.41 313.786C1766.41 314.776 1766.02 315.725 1765.32 316.425C1764.62 317.125 1763.67 317.519 1762.68 317.521C1761.69 317.519 1760.74 317.125 1760.04 316.425C1759.34 315.725 1758.94 314.776 1758.94 313.786C1758.94 312.796 1759.34 311.847 1760.04 311.146C1760.74 310.446 1761.69 310.052 1762.68 310.051Z" fill="#3D63CC" stroke="#3D63CC" stroke-miterlimit="10"/>
<path d="M1533.94 325.142C1534.93 325.143 1535.88 325.537 1536.58 326.237C1537.28 326.937 1537.67 327.887 1537.67 328.877C1537.67 329.867 1537.28 330.816 1536.58 331.516C1535.88 332.216 1534.93 332.61 1533.94 332.612C1532.95 332.61 1532 332.216 1531.3 331.516C1530.6 330.816 1530.2 329.867 1530.2 328.877C1530.2 327.887 1530.6 326.937 1531.3 326.237C1532 325.537 1532.95 325.143 1533.94 325.142Z" fill="#3D63CC" stroke="#3D63CC" stroke-miterlimit="10"/>
</g>
<path d="M633.026 182L649.82 143.93H653.6L670.394 182H665.804L661.592 172.28H641.774L637.616 182H633.026ZM651.656 149.114L643.394 168.554H660.026L651.764 149.114H651.656ZM675.444 182V143.93H679.818V167.42H679.926L692.076 155.756H697.638L684.462 168.392L698.772 182H693.21L679.926 169.688H679.818V182H675.444ZM713.584 182.486C709.444 182.486 706.168 181.28 703.756 178.868C701.344 176.42 700.138 173.108 700.138 168.932C700.138 166.232 700.678 163.856 701.758 161.804C702.838 159.716 704.314 158.114 706.186 156.998C708.094 155.846 710.29 155.27 712.774 155.27C716.338 155.27 719.128 156.422 721.144 158.726C723.16 160.994 724.168 164.126 724.168 168.122V169.796H704.404C704.548 172.784 705.412 175.07 706.996 176.654C708.58 178.202 710.776 178.976 713.584 178.976C715.168 178.976 716.68 178.742 718.12 178.274C719.56 177.77 720.928 176.96 722.224 175.844L723.736 178.922C722.548 180.038 721.036 180.92 719.2 181.568C717.364 182.18 715.492 182.486 713.584 182.486ZM712.882 158.51C710.398 158.51 708.436 159.284 706.996 160.832C705.556 162.38 704.71 164.414 704.458 166.934H720.388C720.28 164.27 719.578 162.2 718.282 160.724C717.022 159.248 715.222 158.51 712.882 158.51ZM733.206 191.72L737.688 181.568L726.618 155.756H731.37L740.064 177.032L748.812 155.756H753.402L737.796 191.72H733.206ZM765.966 182.486C763.302 182.486 761.286 181.712 759.918 180.164C758.586 178.58 757.92 176.294 757.92 173.306V143.93H762.294V172.982C762.294 176.834 763.824 178.76 766.884 178.76C767.784 178.76 768.594 178.652 769.314 178.436L769.206 182.108C768.09 182.36 767.01 182.486 765.966 182.486ZM785.461 182.486C781.321 182.486 778.045 181.28 775.633 178.868C773.221 176.42 772.015 173.108 772.015 168.932C772.015 166.232 772.555 163.856 773.635 161.804C774.715 159.716 776.191 158.114 778.063 156.998C779.971 155.846 782.167 155.27 784.651 155.27C788.215 155.27 791.005 156.422 793.021 158.726C795.037 160.994 796.045 164.126 796.045 168.122V169.796H776.281C776.425 172.784 777.289 175.07 778.873 176.654C780.457 178.202 782.653 178.976 785.461 178.976C787.045 178.976 788.557 178.742 789.997 178.274C791.437 177.77 792.805 176.96 794.101 175.844L795.613 178.922C794.425 180.038 792.913 180.92 791.077 181.568C789.241 182.18 787.369 182.486 785.461 182.486ZM784.759 158.51C782.275 158.51 780.313 159.284 778.873 160.832C777.433 162.38 776.587 164.414 776.335 166.934H792.265C792.157 164.27 791.455 162.2 790.159 160.724C788.899 159.248 787.099 158.51 784.759 158.51ZM811.231 182.486C809.179 182.486 807.235 182.198 805.399 181.622C803.563 181.046 802.051 180.236 800.863 179.192L802.267 176.114C803.563 177.158 804.985 177.932 806.533 178.436C808.117 178.904 809.719 179.138 811.339 179.138C813.391 179.138 814.939 178.76 815.983 178.004C817.027 177.248 817.549 176.222 817.549 174.926C817.549 173.918 817.207 173.126 816.523 172.55C815.839 171.938 814.759 171.47 813.283 171.146L808.369 170.066C803.905 169.094 801.673 166.79 801.673 163.154C801.673 160.778 802.609 158.87 804.481 157.43C806.389 155.99 808.873 155.27 811.933 155.27C813.733 155.27 815.443 155.558 817.063 156.134C818.719 156.674 820.087 157.484 821.167 158.564L819.709 161.642C818.665 160.67 817.441 159.932 816.037 159.428C814.669 158.888 813.301 158.618 811.933 158.618C809.917 158.618 808.387 159.014 807.343 159.806C806.299 160.598 805.777 161.642 805.777 162.938C805.777 164.954 807.109 166.25 809.773 166.826L814.687 167.852C816.991 168.356 818.737 169.166 819.925 170.282C821.113 171.362 821.707 172.838 821.707 174.71C821.707 177.122 820.753 179.03 818.845 180.434C816.937 181.802 814.399 182.486 811.231 182.486ZM837.23 182.486C835.178 182.486 833.234 182.198 831.398 181.622C829.562 181.046 828.05 180.236 826.862 179.192L828.266 176.114C829.562 177.158 830.984 177.932 832.532 178.436C834.116 178.904 835.718 179.138 837.338 179.138C839.39 179.138 840.938 178.76 841.982 178.004C843.026 177.248 843.548 176.222 843.548 174.926C843.548 173.918 843.206 173.126 842.522 172.55C841.838 171.938 840.758 171.47 839.282 171.146L834.368 170.066C829.904 169.094 827.672 166.79 827.672 163.154C827.672 160.778 828.608 158.87 830.48 157.43C832.388 155.99 834.872 155.27 837.932 155.27C839.732 155.27 841.442 155.558 843.062 156.134C844.718 156.674 846.086 157.484 847.166 158.564L845.708 161.642C844.664 160.67 843.44 159.932 842.036 159.428C840.668 158.888 839.3 158.618 837.932 158.618C835.916 158.618 834.386 159.014 833.342 159.806C832.298 160.598 831.776 161.642 831.776 162.938C831.776 164.954 833.108 166.25 835.772 166.826L840.686 167.852C842.99 168.356 844.736 169.166 845.924 170.282C847.112 171.362 847.706 172.838 847.706 174.71C847.706 177.122 846.752 179.03 844.844 180.434C842.936 181.802 840.398 182.486 837.23 182.486ZM868.835 182V143.93H881.687C887.843 143.93 892.595 145.568 895.943 148.844C899.291 152.084 900.965 156.782 900.965 162.938C900.965 169.094 899.291 173.81 895.943 177.086C892.595 180.362 887.843 182 881.687 182H868.835ZM873.263 178.22H881.363C891.299 178.22 896.267 173.126 896.267 162.938C896.267 152.786 891.299 147.71 881.363 147.71H873.263V178.22ZM920.145 182.486C916.005 182.486 912.729 181.28 910.317 178.868C907.905 176.42 906.699 173.108 906.699 168.932C906.699 166.232 907.239 163.856 908.319 161.804C909.399 159.716 910.875 158.114 912.747 156.998C914.655 155.846 916.851 155.27 919.335 155.27C922.899 155.27 925.689 156.422 927.705 158.726C929.721 160.994 930.729 164.126 930.729 168.122V169.796H910.965C911.109 172.784 911.973 175.07 913.557 176.654C915.141 178.202 917.337 178.976 920.145 178.976C921.729 178.976 923.241 178.742 924.681 178.274C926.121 177.77 927.489 176.96 928.785 175.844L930.297 178.922C929.109 180.038 927.597 180.92 925.761 181.568C923.925 182.18 922.053 182.486 920.145 182.486ZM919.443 158.51C916.959 158.51 914.997 159.284 913.557 160.832C912.117 162.38 911.271 164.414 911.019 166.934H926.949C926.841 164.27 926.139 162.2 924.843 160.724C923.583 159.248 921.783 158.51 919.443 158.51ZM944.465 182L933.179 155.756H937.931L946.625 177.032L955.427 155.756H959.909L948.569 182H944.465ZM975.991 182.486C971.851 182.486 968.575 181.28 966.163 178.868C963.751 176.42 962.545 173.108 962.545 168.932C962.545 166.232 963.085 163.856 964.165 161.804C965.245 159.716 966.721 158.114 968.593 156.998C970.501 155.846 972.697 155.27 975.181 155.27C978.745 155.27 981.535 156.422 983.551 158.726C985.567 160.994 986.575 164.126 986.575 168.122V169.796H966.811C966.955 172.784 967.819 175.07 969.403 176.654C970.987 178.202 973.183 178.976 975.991 178.976C977.575 178.976 979.087 178.742 980.527 178.274C981.967 177.77 983.335 176.96 984.631 175.844L986.143 178.922C984.955 180.038 983.443 180.92 981.607 181.568C979.771 182.18 977.899 182.486 975.991 182.486ZM975.289 158.51C972.805 158.51 970.843 159.284 969.403 160.832C967.963 162.38 967.117 164.414 966.865 166.934H982.795C982.687 164.27 981.985 162.2 980.689 160.724C979.429 159.248 977.629 158.51 975.289 158.51ZM1000.95 182.486C998.287 182.486 996.271 181.712 994.903 180.164C993.571 178.58 992.905 176.294 992.905 173.306V143.93H997.279V172.982C997.279 176.834 998.809 178.76 1001.87 178.76C1002.77 178.76 1003.58 178.652 1004.3 178.436L1004.19 182.108C1003.07 182.36 1001.99 182.486 1000.95 182.486ZM1019.53 182.486C1016.97 182.486 1014.76 181.928 1012.89 180.812C1011.01 179.696 1009.56 178.13 1008.51 176.114C1007.5 174.062 1007 171.65 1007 168.878C1007 166.106 1007.5 163.712 1008.51 161.696C1009.56 159.644 1011.01 158.06 1012.89 156.944C1014.76 155.828 1016.97 155.27 1019.53 155.27C1022.05 155.27 1024.24 155.828 1026.12 156.944C1028.02 158.06 1029.48 159.644 1030.49 161.696C1031.53 163.712 1032.06 166.106 1032.06 168.878C1032.06 171.65 1031.53 174.062 1030.49 176.114C1029.48 178.13 1028.02 179.696 1026.12 180.812C1024.24 181.928 1022.05 182.486 1019.53 182.486ZM1019.53 178.976C1021.98 178.976 1023.94 178.112 1025.41 176.384C1026.89 174.62 1027.63 172.118 1027.63 168.878C1027.63 165.602 1026.89 163.1 1025.41 161.372C1023.94 159.644 1021.98 158.78 1019.53 158.78C1017.04 158.78 1015.06 159.644 1013.59 161.372C1012.15 163.1 1011.43 165.602 1011.43 168.878C1011.43 172.118 1012.15 174.62 1013.59 176.384C1015.06 178.112 1017.04 178.976 1019.53 178.976ZM1038.63 191.72V155.756H1042.89V160.454C1043.68 158.834 1044.85 157.574 1046.4 156.674C1047.99 155.738 1049.82 155.27 1051.91 155.27C1054.25 155.27 1056.28 155.828 1058.01 156.944C1059.78 158.024 1061.13 159.59 1062.06 161.642C1063.03 163.658 1063.52 166.07 1063.52 168.878C1063.52 171.65 1063.03 174.062 1062.06 176.114C1061.13 178.13 1059.78 179.696 1058.01 180.812C1056.28 181.928 1054.25 182.486 1051.91 182.486C1049.89 182.486 1048.09 182.036 1046.51 181.136C1044.93 180.236 1043.76 178.994 1043 177.41V191.72H1038.63ZM1050.99 178.976C1053.44 178.976 1055.4 178.112 1056.88 176.384C1058.35 174.62 1059.09 172.118 1059.09 168.878C1059.09 165.602 1058.35 163.1 1056.88 161.372C1055.4 159.644 1053.44 158.78 1050.99 158.78C1048.54 158.78 1046.58 159.644 1045.11 161.372C1043.63 163.1 1042.89 165.602 1042.89 168.878C1042.89 172.118 1043.63 174.62 1045.11 176.384C1046.58 178.112 1048.54 178.976 1050.99 178.976ZM1081.93 182.486C1077.79 182.486 1074.52 181.28 1072.11 178.868C1069.69 176.42 1068.49 173.108 1068.49 168.932C1068.49 166.232 1069.03 163.856 1070.11 161.804C1071.19 159.716 1072.66 158.114 1074.54 156.998C1076.44 155.846 1078.64 155.27 1081.12 155.27C1084.69 155.27 1087.48 156.422 1089.49 158.726C1091.51 160.994 1092.52 164.126 1092.52 168.122V169.796H1072.75C1072.9 172.784 1073.76 175.07 1075.35 176.654C1076.93 178.202 1079.13 178.976 1081.93 178.976C1083.52 178.976 1085.03 178.742 1086.47 178.274C1087.91 177.77 1089.28 176.96 1090.57 175.844L1092.09 178.922C1090.9 180.038 1089.39 180.92 1087.55 181.568C1085.71 182.18 1083.84 182.486 1081.93 182.486ZM1081.23 158.51C1078.75 158.51 1076.79 159.284 1075.35 160.832C1073.91 162.38 1073.06 164.414 1072.81 166.934H1088.74C1088.63 164.27 1087.93 162.2 1086.63 160.724C1085.37 159.248 1083.57 158.51 1081.23 158.51ZM1098.85 182V155.756H1103.11V160.454C1104.52 157.286 1107.4 155.54 1111.75 155.216L1113.32 155.054L1113.64 158.834L1110.89 159.158C1108.41 159.374 1106.52 160.166 1105.22 161.534C1103.92 162.866 1103.28 164.702 1103.28 167.042V182H1098.85ZM1149.13 182.486C1145.39 182.486 1142.19 181.694 1139.52 180.11C1136.86 178.526 1134.81 176.276 1133.37 173.36C1131.96 170.444 1131.26 166.97 1131.26 162.938C1131.26 158.942 1131.96 155.486 1133.37 152.57C1134.81 149.654 1136.86 147.404 1139.52 145.82C1142.19 144.236 1145.39 143.444 1149.13 143.444C1151.76 143.444 1154.17 143.858 1156.37 144.686C1158.6 145.514 1160.49 146.72 1162.04 148.304L1160.31 151.922C1158.66 150.374 1156.93 149.258 1155.13 148.574C1153.36 147.854 1151.4 147.494 1149.24 147.494C1144.96 147.494 1141.68 148.844 1139.41 151.544C1137.15 154.244 1136.01 158.042 1136.01 162.938C1136.01 167.87 1137.15 171.686 1139.41 174.386C1141.68 177.086 1144.96 178.436 1149.24 178.436C1151.4 178.436 1153.36 178.094 1155.13 177.41C1156.93 176.69 1158.66 175.556 1160.31 174.008L1162.04 177.626C1160.49 179.174 1158.6 180.38 1156.37 181.244C1154.17 182.072 1151.76 182.486 1149.13 182.486ZM1178.33 182.486C1174.19 182.486 1170.92 181.28 1168.5 178.868C1166.09 176.42 1164.89 173.108 1164.89 168.932C1164.89 166.232 1165.43 163.856 1166.51 161.804C1167.59 159.716 1169.06 158.114 1170.93 156.998C1172.84 155.846 1175.04 155.27 1177.52 155.27C1181.09 155.27 1183.88 156.422 1185.89 158.726C1187.91 160.994 1188.92 164.126 1188.92 168.122V169.796H1169.15C1169.3 172.784 1170.16 175.07 1171.74 176.654C1173.33 178.202 1175.52 178.976 1178.33 178.976C1179.92 178.976 1181.43 178.742 1182.87 178.274C1184.31 177.77 1185.68 176.96 1186.97 175.844L1188.48 178.922C1187.3 180.038 1185.78 180.92 1183.95 181.568C1182.11 182.18 1180.24 182.486 1178.33 182.486ZM1177.63 158.51C1175.15 158.51 1173.18 159.284 1171.74 160.832C1170.3 162.38 1169.46 164.414 1169.21 166.934H1185.14C1185.03 164.27 1184.33 162.2 1183.03 160.724C1181.77 159.248 1179.97 158.51 1177.63 158.51ZM1195.25 182V155.756H1199.51V160.238C1200.38 158.582 1201.6 157.34 1203.18 156.512C1204.77 155.684 1206.55 155.27 1208.53 155.27C1214.76 155.27 1217.87 158.726 1217.87 165.638V182H1213.5V165.908C1213.5 163.46 1213.01 161.678 1212.04 160.562C1211.1 159.41 1209.59 158.834 1207.5 158.834C1205.09 158.834 1203.17 159.59 1201.73 161.102C1200.32 162.578 1199.62 164.558 1199.62 167.042V182H1195.25ZM1236.47 182.486C1233.37 182.486 1231.05 181.676 1229.5 180.056C1227.95 178.4 1227.18 176.024 1227.18 172.928V159.158H1222.05V155.756H1227.18V147.71H1231.55V155.756H1239.87V159.158H1231.55V172.496C1231.55 174.548 1231.99 176.114 1232.85 177.194C1233.71 178.238 1235.12 178.76 1237.06 178.76C1237.64 178.76 1238.21 178.688 1238.79 178.544C1239.37 178.4 1239.89 178.256 1240.36 178.112L1241.11 181.46C1240.64 181.712 1239.96 181.946 1239.06 182.162C1238.16 182.378 1237.3 182.486 1236.47 182.486ZM1256.38 182.486C1252.24 182.486 1248.96 181.28 1246.55 178.868C1244.14 176.42 1242.93 173.108 1242.93 168.932C1242.93 166.232 1243.47 163.856 1244.55 161.804C1245.63 159.716 1247.11 158.114 1248.98 156.998C1250.89 155.846 1253.09 155.27 1255.57 155.27C1259.13 155.27 1261.92 156.422 1263.94 158.726C1265.96 160.994 1266.96 164.126 1266.96 168.122V169.796H1247.2C1247.34 172.784 1248.21 175.07 1249.79 176.654C1251.38 178.202 1253.57 178.976 1256.38 178.976C1257.96 178.976 1259.48 178.742 1260.92 178.274C1262.36 177.77 1263.72 176.96 1265.02 175.844L1266.53 178.922C1265.34 180.038 1263.83 180.92 1262 181.568C1260.16 182.18 1258.29 182.486 1256.38 182.486ZM1255.68 158.51C1253.19 158.51 1251.23 159.284 1249.79 160.832C1248.35 162.38 1247.51 164.414 1247.25 166.934H1263.18C1263.08 164.27 1262.37 162.2 1261.08 160.724C1259.82 159.248 1258.02 158.51 1255.68 158.51ZM1273.29 182V155.756H1277.56V160.454C1278.96 157.286 1281.84 155.54 1286.2 155.216L1287.77 155.054L1288.09 158.834L1285.34 159.158C1282.85 159.374 1280.96 160.166 1279.67 161.534C1278.37 162.866 1277.72 164.702 1277.72 167.042V182H1273.29Z" fill="white"/>
<path d="M678.54 226L673.6 211.9H675.32L679.3 223.6L683.38 211.9H684.7L688.74 223.7L692.8 211.9H694.44L689.5 226H688.04L684.02 214.4L679.96 226H678.54ZM699.74 226.18C698.207 226.18 696.993 225.733 696.1 224.84C695.207 223.933 694.76 222.707 694.76 221.16C694.76 220.16 694.96 219.28 695.36 218.52C695.76 217.747 696.307 217.153 697 216.74C697.707 216.313 698.52 216.1 699.44 216.1C700.76 216.1 701.793 216.527 702.54 217.38C703.287 218.22 703.66 219.38 703.66 220.86V221.48H696.34C696.393 222.587 696.713 223.433 697.3 224.02C697.887 224.593 698.7 224.88 699.74 224.88C700.327 224.88 700.887 224.793 701.42 224.62C701.953 224.433 702.46 224.133 702.94 223.72L703.5 224.86C703.06 225.273 702.5 225.6 701.82 225.84C701.14 226.067 700.447 226.18 699.74 226.18ZM699.48 217.3C698.56 217.3 697.833 217.587 697.3 218.16C696.767 218.733 696.453 219.487 696.36 220.42H702.26C702.22 219.433 701.96 218.667 701.48 218.12C701.013 217.573 700.347 217.3 699.48 217.3ZM708.984 226.18C707.998 226.18 707.251 225.893 706.744 225.32C706.251 224.733 706.004 223.887 706.004 222.78V211.9H707.624V222.66C707.624 224.087 708.191 224.8 709.324 224.8C709.658 224.8 709.958 224.76 710.224 224.68L710.184 226.04C709.771 226.133 709.371 226.18 708.984 226.18ZM715.945 226.18C714.971 226.18 714.131 225.973 713.425 225.56C712.718 225.133 712.171 224.54 711.785 223.78C711.411 223.007 711.225 222.107 711.225 221.08C711.225 219.533 711.645 218.32 712.485 217.44C713.325 216.547 714.478 216.1 715.945 216.1C716.545 216.1 717.138 216.207 717.725 216.42C718.311 216.633 718.798 216.933 719.185 217.32L718.625 218.5C718.238 218.127 717.811 217.853 717.345 217.68C716.891 217.507 716.458 217.42 716.045 217.42C715.031 217.42 714.251 217.74 713.705 218.38C713.158 219.007 712.885 219.913 712.885 221.1C712.885 222.26 713.158 223.18 713.705 223.86C714.251 224.527 715.031 224.86 716.045 224.86C716.458 224.86 716.891 224.773 717.345 224.6C717.811 224.427 718.238 224.147 718.625 223.76L719.185 224.94C718.798 225.327 718.305 225.633 717.705 225.86C717.118 226.073 716.531 226.18 715.945 226.18ZM724.927 226.18C723.981 226.18 723.161 225.973 722.467 225.56C721.774 225.147 721.234 224.567 720.847 223.82C720.474 223.06 720.287 222.167 720.287 221.14C720.287 220.113 720.474 219.227 720.847 218.48C721.234 217.72 721.774 217.133 722.467 216.72C723.161 216.307 723.981 216.1 724.927 216.1C725.861 216.1 726.674 216.307 727.367 216.72C728.074 217.133 728.614 217.72 728.987 218.48C729.374 219.227 729.567 220.113 729.567 221.14C729.567 222.167 729.374 223.06 728.987 223.82C728.614 224.567 728.074 225.147 727.367 225.56C726.674 225.973 725.861 226.18 724.927 226.18ZM724.927 224.88C725.834 224.88 726.561 224.56 727.107 223.92C727.654 223.267 727.927 222.34 727.927 221.14C727.927 219.927 727.654 219 727.107 218.36C726.561 217.72 725.834 217.4 724.927 217.4C724.007 217.4 723.274 217.72 722.727 218.36C722.194 219 721.927 219.927 721.927 221.14C721.927 222.34 722.194 223.267 722.727 223.92C723.274 224.56 724.007 224.88 724.927 224.88ZM732.04 226V216.28H733.62V217.92C733.914 217.333 734.32 216.887 734.84 216.58C735.36 216.26 735.967 216.1 736.66 216.1C738.18 216.1 739.154 216.76 739.58 218.08C739.874 217.467 740.307 216.987 740.88 216.64C741.454 216.28 742.114 216.1 742.86 216.1C745.02 216.1 746.1 217.38 746.1 219.94V226H744.48V220.02C744.48 219.127 744.32 218.473 744 218.06C743.694 217.633 743.18 217.42 742.46 217.42C741.674 217.42 741.047 217.7 740.58 218.26C740.114 218.82 739.88 219.567 739.88 220.5V226H738.26V220.02C738.26 219.127 738.1 218.473 737.78 218.06C737.474 217.633 736.96 217.42 736.24 217.42C735.44 217.42 734.807 217.7 734.34 218.26C733.887 218.82 733.66 219.567 733.66 220.5V226H732.04ZM753.509 226.18C751.976 226.18 750.763 225.733 749.869 224.84C748.976 223.933 748.529 222.707 748.529 221.16C748.529 220.16 748.729 219.28 749.129 218.52C749.529 217.747 750.076 217.153 750.769 216.74C751.476 216.313 752.289 216.1 753.209 216.1C754.529 216.1 755.563 216.527 756.309 217.38C757.056 218.22 757.429 219.38 757.429 220.86V221.48H750.109C750.163 222.587 750.483 223.433 751.069 224.02C751.656 224.593 752.469 224.88 753.509 224.88C754.096 224.88 754.656 224.793 755.189 224.62C755.723 224.433 756.229 224.133 756.709 223.72L757.269 224.86C756.829 225.273 756.269 225.6 755.589 225.84C754.909 226.067 754.216 226.18 753.509 226.18ZM753.249 217.3C752.329 217.3 751.603 217.587 751.069 218.16C750.536 218.733 750.223 219.487 750.129 220.42H756.029C755.989 219.433 755.729 218.667 755.249 218.12C754.783 217.573 754.116 217.3 753.249 217.3ZM768.811 226.18C767.664 226.18 766.804 225.88 766.231 225.28C765.657 224.667 765.371 223.787 765.371 222.64V217.54H763.471V216.28H765.371V213.3H766.991V216.28H770.071V217.54H766.991V222.48C766.991 223.24 767.151 223.82 767.471 224.22C767.791 224.607 768.311 224.8 769.031 224.8C769.244 224.8 769.457 224.773 769.671 224.72C769.884 224.667 770.077 224.613 770.251 224.56L770.531 225.8C770.357 225.893 770.104 225.98 769.771 226.06C769.437 226.14 769.117 226.18 768.811 226.18ZM775.845 226.18C774.898 226.18 774.078 225.973 773.385 225.56C772.692 225.147 772.152 224.567 771.765 223.82C771.392 223.06 771.205 222.167 771.205 221.14C771.205 220.113 771.392 219.227 771.765 218.48C772.152 217.72 772.692 217.133 773.385 216.72C774.078 216.307 774.898 216.1 775.845 216.1C776.778 216.1 777.592 216.307 778.285 216.72C778.992 217.133 779.532 217.72 779.905 218.48C780.292 219.227 780.485 220.113 780.485 221.14C780.485 222.167 780.292 223.06 779.905 223.82C779.532 224.567 778.992 225.147 778.285 225.56C777.592 225.973 776.778 226.18 775.845 226.18ZM775.845 224.88C776.752 224.88 777.478 224.56 778.025 223.92C778.572 223.267 778.845 222.34 778.845 221.14C778.845 219.927 778.572 219 778.025 218.36C777.478 217.72 776.752 217.4 775.845 217.4C774.925 217.4 774.192 217.72 773.645 218.36C773.112 219 772.845 219.927 772.845 221.14C772.845 222.34 773.112 223.267 773.645 223.92C774.192 224.56 774.925 224.88 775.845 224.88ZM791.955 226.18C790.808 226.18 789.948 225.88 789.375 225.28C788.802 224.667 788.515 223.787 788.515 222.64V217.54H786.615V216.28H788.515V213.3H790.135V216.28H793.215V217.54H790.135V222.48C790.135 223.24 790.295 223.82 790.615 224.22C790.935 224.607 791.455 224.8 792.175 224.8C792.388 224.8 792.602 224.773 792.815 224.72C793.028 224.667 793.222 224.613 793.395 224.56L793.675 225.8C793.502 225.893 793.248 225.98 792.915 226.06C792.582 226.14 792.262 226.18 791.955 226.18ZM795.047 226V211.9H796.667V217.88C796.987 217.293 797.434 216.853 798.007 216.56C798.594 216.253 799.247 216.1 799.967 216.1C802.274 216.1 803.427 217.38 803.427 219.94V226H801.807V220.04C801.807 219.133 801.627 218.473 801.267 218.06C800.921 217.633 800.361 217.42 799.587 217.42C798.694 217.42 797.981 217.7 797.447 218.26C796.927 218.807 796.667 219.54 796.667 220.46V226H795.047ZM810.795 226.18C809.261 226.18 808.048 225.733 807.155 224.84C806.261 223.933 805.815 222.707 805.815 221.16C805.815 220.16 806.015 219.28 806.415 218.52C806.815 217.747 807.361 217.153 808.055 216.74C808.761 216.313 809.575 216.1 810.495 216.1C811.815 216.1 812.848 216.527 813.595 217.38C814.341 218.22 814.715 219.38 814.715 220.86V221.48H807.395C807.448 222.587 807.768 223.433 808.355 224.02C808.941 224.593 809.755 224.88 810.795 224.88C811.381 224.88 811.941 224.793 812.475 224.62C813.008 224.433 813.515 224.133 813.995 223.72L814.555 224.86C814.115 225.273 813.555 225.6 812.875 225.84C812.195 226.067 811.501 226.18 810.795 226.18ZM810.535 217.3C809.615 217.3 808.888 217.587 808.355 218.16C807.821 218.733 807.508 219.487 807.415 220.42H813.315C813.275 219.433 813.015 218.667 812.535 218.12C812.068 217.573 811.401 217.3 810.535 217.3ZM825.896 226.18C825.029 226.18 824.269 225.973 823.616 225.56C822.976 225.147 822.476 224.567 822.116 223.82C821.769 223.06 821.596 222.167 821.596 221.14C821.596 220.1 821.769 219.207 822.116 218.46C822.476 217.7 822.976 217.12 823.616 216.72C824.269 216.307 825.029 216.1 825.896 216.1C826.656 216.1 827.322 216.267 827.896 216.6C828.482 216.933 828.916 217.393 829.196 217.98V211.9H830.816V226H829.236V224.22C828.956 224.833 828.522 225.313 827.936 225.66C827.349 226.007 826.669 226.18 825.896 226.18ZM826.236 224.88C827.142 224.88 827.869 224.56 828.416 223.92C828.962 223.267 829.236 222.34 829.236 221.14C829.236 219.927 828.962 219 828.416 218.36C827.869 217.72 827.142 217.4 826.236 217.4C825.316 217.4 824.582 217.72 824.036 218.36C823.502 219 823.236 219.927 823.236 221.14C823.236 222.34 823.502 223.267 824.036 223.92C824.582 224.56 825.316 224.88 826.236 224.88ZM838.236 226.18C836.703 226.18 835.489 225.733 834.596 224.84C833.703 223.933 833.256 222.707 833.256 221.16C833.256 220.16 833.456 219.28 833.856 218.52C834.256 217.747 834.803 217.153 835.496 216.74C836.203 216.313 837.016 216.1 837.936 216.1C839.256 216.1 840.289 216.527 841.036 217.38C841.783 218.22 842.156 219.38 842.156 220.86V221.48H834.836C834.889 222.587 835.209 223.433 835.796 224.02C836.383 224.593 837.196 224.88 838.236 224.88C838.823 224.88 839.383 224.793 839.916 224.62C840.449 224.433 840.956 224.133 841.436 223.72L841.996 224.86C841.556 225.273 840.996 225.6 840.316 225.84C839.636 226.067 838.943 226.18 838.236 226.18ZM837.976 217.3C837.056 217.3 836.329 217.587 835.796 218.16C835.263 218.733 834.949 219.487 834.856 220.42H840.756C840.716 219.433 840.456 218.667 839.976 218.12C839.509 217.573 838.843 217.3 837.976 217.3ZM847.243 226L843.063 216.28H844.823L848.043 224.16L851.303 216.28H852.963L848.763 226H847.243ZM858.92 226.18C857.386 226.18 856.173 225.733 855.28 224.84C854.386 223.933 853.94 222.707 853.94 221.16C853.94 220.16 854.14 219.28 854.54 218.52C854.94 217.747 855.486 217.153 856.18 216.74C856.886 216.313 857.7 216.1 858.62 216.1C859.94 216.1 860.973 216.527 861.72 217.38C862.466 218.22 862.84 219.38 862.84 220.86V221.48H855.52C855.573 222.587 855.893 223.433 856.48 224.02C857.066 224.593 857.88 224.88 858.92 224.88C859.506 224.88 860.066 224.793 860.6 224.62C861.133 224.433 861.64 224.133 862.12 223.72L862.68 224.86C862.24 225.273 861.68 225.6 861 225.84C860.32 226.067 859.626 226.18 858.92 226.18ZM858.66 217.3C857.74 217.3 857.013 217.587 856.48 218.16C855.946 218.733 855.633 219.487 855.54 220.42H861.44C861.4 219.433 861.14 218.667 860.66 218.12C860.193 217.573 859.526 217.3 858.66 217.3ZM868.164 226.18C867.177 226.18 866.431 225.893 865.924 225.32C865.431 224.733 865.184 223.887 865.184 222.78V211.9H866.804V222.66C866.804 224.087 867.371 224.8 868.504 224.8C868.837 224.8 869.137 224.76 869.404 224.68L869.364 226.04C868.951 226.133 868.551 226.18 868.164 226.18ZM875.044 226.18C874.098 226.18 873.278 225.973 872.584 225.56C871.891 225.147 871.351 224.567 870.964 223.82C870.591 223.06 870.404 222.167 870.404 221.14C870.404 220.113 870.591 219.227 870.964 218.48C871.351 217.72 871.891 217.133 872.584 216.72C873.278 216.307 874.098 216.1 875.044 216.1C875.978 216.1 876.791 216.307 877.484 216.72C878.191 217.133 878.731 217.72 879.104 218.48C879.491 219.227 879.684 220.113 879.684 221.14C879.684 222.167 879.491 223.06 879.104 223.82C878.731 224.567 878.191 225.147 877.484 225.56C876.791 225.973 875.978 226.18 875.044 226.18ZM875.044 224.88C875.951 224.88 876.678 224.56 877.224 223.92C877.771 223.267 878.044 222.34 878.044 221.14C878.044 219.927 877.771 219 877.224 218.36C876.678 217.72 875.951 217.4 875.044 217.4C874.124 217.4 873.391 217.72 872.844 218.36C872.311 219 872.044 219.927 872.044 221.14C872.044 222.34 872.311 223.267 872.844 223.92C873.391 224.56 874.124 224.88 875.044 224.88ZM882.118 229.6V216.28H883.698V218.02C883.991 217.42 884.424 216.953 884.998 216.62C885.584 216.273 886.264 216.1 887.038 216.1C887.904 216.1 888.658 216.307 889.298 216.72C889.951 217.12 890.451 217.7 890.798 218.46C891.158 219.207 891.338 220.1 891.338 221.14C891.338 222.167 891.158 223.06 890.798 223.82C890.451 224.567 889.951 225.147 889.298 225.56C888.658 225.973 887.904 226.18 887.038 226.18C886.291 226.18 885.624 226.013 885.038 225.68C884.451 225.347 884.018 224.887 883.738 224.3V229.6H882.118ZM886.698 224.88C887.604 224.88 888.331 224.56 888.878 223.92C889.424 223.267 889.698 222.34 889.698 221.14C889.698 219.927 889.424 219 888.878 218.36C888.331 217.72 887.604 217.4 886.698 217.4C885.791 217.4 885.064 217.72 884.518 218.36C883.971 219 883.698 219.927 883.698 221.14C883.698 222.34 883.971 223.267 884.518 223.92C885.064 224.56 885.791 224.88 886.698 224.88ZM898.158 226.18C896.624 226.18 895.411 225.733 894.518 224.84C893.624 223.933 893.178 222.707 893.178 221.16C893.178 220.16 893.378 219.28 893.778 218.52C894.178 217.747 894.724 217.153 895.418 216.74C896.124 216.313 896.938 216.1 897.858 216.1C899.178 216.1 900.211 216.527 900.958 217.38C901.704 218.22 902.078 219.38 902.078 220.86V221.48H894.758C894.811 222.587 895.131 223.433 895.718 224.02C896.304 224.593 897.118 224.88 898.158 224.88C898.744 224.88 899.304 224.793 899.838 224.62C900.371 224.433 900.878 224.133 901.358 223.72L901.918 224.86C901.478 225.273 900.918 225.6 900.238 225.84C899.558 226.067 898.864 226.18 898.158 226.18ZM897.898 217.3C896.978 217.3 896.251 217.587 895.718 218.16C895.184 218.733 894.871 219.487 894.778 220.42H900.678C900.638 219.433 900.378 218.667 899.898 218.12C899.431 217.573 898.764 217.3 897.898 217.3ZM904.422 226V216.28H906.002V218.02C906.522 216.847 907.589 216.2 909.202 216.08L909.782 216.02L909.902 217.42L908.882 217.54C907.962 217.62 907.262 217.913 906.782 218.42C906.302 218.913 906.062 219.593 906.062 220.46V226H904.422ZM916.727 226V211.9H918.347V217.88C918.667 217.293 919.114 216.853 919.687 216.56C920.274 216.253 920.927 216.1 921.647 216.1C923.954 216.1 925.107 217.38 925.107 219.94V226H923.487V220.04C923.487 219.133 923.307 218.473 922.947 218.06C922.6 217.633 922.04 217.42 921.267 217.42C920.374 217.42 919.66 217.7 919.127 218.26C918.607 218.807 918.347 219.54 918.347 220.46V226H916.727ZM931.534 226.18C929.201 226.18 928.034 224.893 928.034 222.32V216.28H929.654V222.3C929.654 223.167 929.828 223.807 930.174 224.22C930.534 224.633 931.094 224.84 931.854 224.84C932.681 224.84 933.354 224.567 933.874 224.02C934.394 223.46 934.654 222.72 934.654 221.8V216.28H936.274V226H934.694V224.36C934.388 224.947 933.954 225.4 933.394 225.72C932.848 226.027 932.228 226.18 931.534 226.18ZM944.225 226.18C943.452 226.18 942.772 226.007 942.185 225.66C941.612 225.313 941.178 224.84 940.885 224.24V226H939.305V211.9H940.925V217.96C941.205 217.387 941.638 216.933 942.225 216.6C942.812 216.267 943.478 216.1 944.225 216.1C945.092 216.1 945.845 216.307 946.485 216.72C947.138 217.12 947.638 217.7 947.985 218.46C948.345 219.207 948.525 220.1 948.525 221.14C948.525 222.167 948.345 223.06 947.985 223.82C947.638 224.567 947.138 225.147 946.485 225.56C945.845 225.973 945.092 226.18 944.225 226.18ZM943.885 224.88C944.792 224.88 945.518 224.56 946.065 223.92C946.612 223.267 946.885 222.34 946.885 221.14C946.885 219.927 946.612 219 946.065 218.36C945.518 217.72 944.792 217.4 943.885 217.4C942.978 217.4 942.252 217.72 941.705 218.36C941.158 219 940.885 219.927 940.885 221.14C940.885 222.34 941.158 223.267 941.705 223.92C942.252 224.56 942.978 224.88 943.885 224.88ZM959.162 226.18C958.495 226.18 957.895 226.053 957.362 225.8C956.842 225.533 956.429 225.173 956.122 224.72C955.815 224.267 955.662 223.76 955.662 223.2C955.662 222.493 955.842 221.933 956.202 221.52C956.575 221.107 957.182 220.813 958.022 220.64C958.875 220.453 960.035 220.36 961.502 220.36H962.142V219.74C962.142 218.913 961.969 218.32 961.622 217.96C961.289 217.587 960.749 217.4 960.002 217.4C959.415 217.4 958.849 217.487 958.302 217.66C957.755 217.82 957.195 218.087 956.622 218.46L956.062 217.28C956.569 216.92 957.182 216.633 957.902 216.42C958.635 216.207 959.335 216.1 960.002 216.1C961.255 216.1 962.182 216.407 962.782 217.02C963.395 217.633 963.702 218.587 963.702 219.88V226H962.182V224.32C961.929 224.893 961.535 225.347 961.002 225.68C960.482 226.013 959.869 226.18 959.162 226.18ZM959.422 224.96C960.222 224.96 960.875 224.687 961.382 224.14C961.889 223.58 962.142 222.873 962.142 222.02V221.42H961.522C960.442 221.42 959.589 221.473 958.962 221.58C958.349 221.673 957.915 221.847 957.662 222.1C957.422 222.34 957.302 222.673 957.302 223.1C957.302 223.647 957.489 224.093 957.862 224.44C958.249 224.787 958.769 224.96 959.422 224.96ZM966.708 226V216.28H968.288V217.94C968.608 217.327 969.061 216.867 969.648 216.56C970.234 216.253 970.894 216.1 971.628 216.1C973.934 216.1 975.088 217.38 975.088 219.94V226H973.468V220.04C973.468 219.133 973.288 218.473 972.928 218.06C972.581 217.633 972.021 217.42 971.248 217.42C970.354 217.42 969.641 217.7 969.108 218.26C968.588 218.807 968.328 219.54 968.328 220.46V226H966.708ZM981.775 226.18C980.908 226.18 980.148 225.973 979.495 225.56C978.855 225.147 978.355 224.567 977.995 223.82C977.648 223.06 977.475 222.167 977.475 221.14C977.475 220.1 977.648 219.207 977.995 218.46C978.355 217.7 978.855 217.12 979.495 216.72C980.148 216.307 980.908 216.1 981.775 216.1C982.535 216.1 983.201 216.267 983.775 216.6C984.361 216.933 984.795 217.393 985.075 217.98V211.9H986.695V226H985.115V224.22C984.835 224.833 984.401 225.313 983.815 225.66C983.228 226.007 982.548 226.18 981.775 226.18ZM982.115 224.88C983.021 224.88 983.748 224.56 984.295 223.92C984.841 223.267 985.115 222.34 985.115 221.14C985.115 219.927 984.841 219 984.295 218.36C983.748 217.72 983.021 217.4 982.115 217.4C981.195 217.4 980.461 217.72 979.915 218.36C979.381 219 979.115 219.927 979.115 221.14C979.115 222.34 979.381 223.267 979.915 223.92C980.461 224.56 981.195 224.88 982.115 224.88ZM998.572 226.18C997.705 226.18 996.945 225.973 996.292 225.56C995.652 225.147 995.152 224.567 994.792 223.82C994.445 223.06 994.272 222.167 994.272 221.14C994.272 220.1 994.445 219.207 994.792 218.46C995.152 217.7 995.652 217.12 996.292 216.72C996.945 216.307 997.705 216.1 998.572 216.1C999.332 216.1 999.998 216.267 1000.57 216.6C1001.16 216.933 1001.59 217.393 1001.87 217.98V211.9H1003.49V226H1001.91V224.22C1001.63 224.833 1001.2 225.313 1000.61 225.66C1000.02 226.007 999.345 226.18 998.572 226.18ZM998.912 224.88C999.818 224.88 1000.54 224.56 1001.09 223.92C1001.64 223.267 1001.91 222.34 1001.91 221.14C1001.91 219.927 1001.64 219 1001.09 218.36C1000.54 217.72 999.818 217.4 998.912 217.4C997.992 217.4 997.258 217.72 996.712 218.36C996.178 219 995.912 219.927 995.912 221.14C995.912 222.34 996.178 223.267 996.712 223.92C997.258 224.56 997.992 224.88 998.912 224.88ZM1010.57 226.18C1009.63 226.18 1008.81 225.973 1008.11 225.56C1007.42 225.147 1006.88 224.567 1006.49 223.82C1006.12 223.06 1005.93 222.167 1005.93 221.14C1005.93 220.113 1006.12 219.227 1006.49 218.48C1006.88 217.72 1007.42 217.133 1008.11 216.72C1008.81 216.307 1009.63 216.1 1010.57 216.1C1011.51 216.1 1012.32 216.307 1013.01 216.72C1013.72 217.133 1014.26 217.72 1014.63 218.48C1015.02 219.227 1015.21 220.113 1015.21 221.14C1015.21 222.167 1015.02 223.06 1014.63 223.82C1014.26 224.567 1013.72 225.147 1013.01 225.56C1012.32 225.973 1011.51 226.18 1010.57 226.18ZM1010.57 224.88C1011.48 224.88 1012.21 224.56 1012.75 223.92C1013.3 223.267 1013.57 222.34 1013.57 221.14C1013.57 219.927 1013.3 219 1012.75 218.36C1012.21 217.72 1011.48 217.4 1010.57 217.4C1009.65 217.4 1008.92 217.72 1008.37 218.36C1007.84 219 1007.57 219.927 1007.57 221.14C1007.57 222.34 1007.84 223.267 1008.37 223.92C1008.92 224.56 1009.65 224.88 1010.57 224.88ZM1021.77 226.18C1020.79 226.18 1019.95 225.973 1019.25 225.56C1018.54 225.133 1017.99 224.54 1017.61 223.78C1017.23 223.007 1017.05 222.107 1017.05 221.08C1017.05 219.533 1017.47 218.32 1018.31 217.44C1019.15 216.547 1020.3 216.1 1021.77 216.1C1022.37 216.1 1022.96 216.207 1023.55 216.42C1024.13 216.633 1024.62 216.933 1025.01 217.32L1024.45 218.5C1024.06 218.127 1023.63 217.853 1023.17 217.68C1022.71 217.507 1022.28 217.42 1021.87 217.42C1020.85 217.42 1020.07 217.74 1019.53 218.38C1018.98 219.007 1018.71 219.913 1018.71 221.1C1018.71 222.26 1018.98 223.18 1019.53 223.86C1020.07 224.527 1020.85 224.86 1021.87 224.86C1022.28 224.86 1022.71 224.773 1023.17 224.6C1023.63 224.427 1024.06 224.147 1024.45 223.76L1025.01 224.94C1024.62 225.327 1024.13 225.633 1023.53 225.86C1022.94 226.073 1022.35 226.18 1021.77 226.18ZM1030.34 226.18C1028.01 226.18 1026.84 224.893 1026.84 222.32V216.28H1028.46V222.3C1028.46 223.167 1028.64 223.807 1028.98 224.22C1029.34 224.633 1029.9 224.84 1030.66 224.84C1031.49 224.84 1032.16 224.567 1032.68 224.02C1033.2 223.46 1033.46 222.72 1033.46 221.8V216.28H1035.08V226H1033.5V224.36C1033.2 224.947 1032.76 225.4 1032.2 225.72C1031.66 226.027 1031.04 226.18 1030.34 226.18ZM1038.15 226V216.28H1039.73V217.92C1040.03 217.333 1040.43 216.887 1040.95 216.58C1041.47 216.26 1042.08 216.1 1042.77 216.1C1044.29 216.1 1045.27 216.76 1045.69 218.08C1045.99 217.467 1046.42 216.987 1046.99 216.64C1047.57 216.28 1048.23 216.1 1048.97 216.1C1051.13 216.1 1052.21 217.38 1052.21 219.94V226H1050.59V220.02C1050.59 219.127 1050.43 218.473 1050.11 218.06C1049.81 217.633 1049.29 217.42 1048.57 217.42C1047.79 217.42 1047.16 217.7 1046.69 218.26C1046.23 218.82 1045.99 219.567 1045.99 220.5V226H1044.37V220.02C1044.37 219.127 1044.21 218.473 1043.89 218.06C1043.59 217.633 1043.07 217.42 1042.35 217.42C1041.55 217.42 1040.92 217.7 1040.45 218.26C1040 218.82 1039.77 219.567 1039.77 220.5V226H1038.15ZM1059.62 226.18C1058.09 226.18 1056.88 225.733 1055.98 224.84C1055.09 223.933 1054.64 222.707 1054.64 221.16C1054.64 220.16 1054.84 219.28 1055.24 218.52C1055.64 217.747 1056.19 217.153 1056.88 216.74C1057.59 216.313 1058.4 216.1 1059.32 216.1C1060.64 216.1 1061.68 216.527 1062.42 217.38C1063.17 218.22 1063.54 219.38 1063.54 220.86V221.48H1056.22C1056.28 222.587 1056.6 223.433 1057.18 224.02C1057.77 224.593 1058.58 224.88 1059.62 224.88C1060.21 224.88 1060.77 224.793 1061.3 224.62C1061.84 224.433 1062.34 224.133 1062.82 223.72L1063.38 224.86C1062.94 225.273 1062.38 225.6 1061.7 225.84C1061.02 226.067 1060.33 226.18 1059.62 226.18ZM1059.36 217.3C1058.44 217.3 1057.72 217.587 1057.18 218.16C1056.65 218.733 1056.34 219.487 1056.24 220.42H1062.14C1062.1 219.433 1061.84 218.667 1061.36 218.12C1060.9 217.573 1060.23 217.3 1059.36 217.3ZM1065.89 226V216.28H1067.47V217.94C1067.79 217.327 1068.24 216.867 1068.83 216.56C1069.41 216.253 1070.07 216.1 1070.81 216.1C1073.11 216.1 1074.27 217.38 1074.27 219.94V226H1072.65V220.04C1072.65 219.133 1072.47 218.473 1072.11 218.06C1071.76 217.633 1071.2 217.42 1070.43 217.42C1069.53 217.42 1068.82 217.7 1068.29 218.26C1067.77 218.807 1067.51 219.54 1067.51 220.46V226H1065.89ZM1081.15 226.18C1080.01 226.18 1079.15 225.88 1078.57 225.28C1078 224.667 1077.71 223.787 1077.71 222.64V217.54H1075.81V216.28H1077.71V213.3H1079.33V216.28H1082.41V217.54H1079.33V222.48C1079.33 223.24 1079.49 223.82 1079.81 224.22C1080.13 224.607 1080.65 224.8 1081.37 224.8C1081.59 224.8 1081.8 224.773 1082.01 224.72C1082.23 224.667 1082.42 224.613 1082.59 224.56L1082.87 225.8C1082.7 225.893 1082.45 225.98 1082.11 226.06C1081.78 226.14 1081.46 226.18 1081.15 226.18ZM1087.31 226.18C1086.64 226.18 1086.04 226.053 1085.51 225.8C1084.99 225.533 1084.57 225.173 1084.27 224.72C1083.96 224.267 1083.81 223.76 1083.81 223.2C1083.81 222.493 1083.99 221.933 1084.35 221.52C1084.72 221.107 1085.33 220.813 1086.17 220.64C1087.02 220.453 1088.18 220.36 1089.65 220.36H1090.29V219.74C1090.29 218.913 1090.11 218.32 1089.77 217.96C1089.43 217.587 1088.89 217.4 1088.15 217.4C1087.56 217.4 1086.99 217.487 1086.45 217.66C1085.9 217.82 1085.34 218.087 1084.77 218.46L1084.21 217.28C1084.71 216.92 1085.33 216.633 1086.05 216.42C1086.78 216.207 1087.48 216.1 1088.15 216.1C1089.4 216.1 1090.33 216.407 1090.93 217.02C1091.54 217.633 1091.85 218.587 1091.85 219.88V226H1090.33V224.32C1090.07 224.893 1089.68 225.347 1089.15 225.68C1088.63 226.013 1088.01 226.18 1087.31 226.18ZM1087.57 224.96C1088.37 224.96 1089.02 224.687 1089.53 224.14C1090.03 223.58 1090.29 222.873 1090.29 222.02V221.42H1089.67C1088.59 221.42 1087.73 221.473 1087.11 221.58C1086.49 221.673 1086.06 221.847 1085.81 222.1C1085.57 222.34 1085.45 222.673 1085.45 223.1C1085.45 223.647 1085.63 224.093 1086.01 224.44C1086.39 224.787 1086.91 224.96 1087.57 224.96ZM1098.75 226.18C1097.61 226.18 1096.75 225.88 1096.17 225.28C1095.6 224.667 1095.31 223.787 1095.31 222.64V217.54H1093.41V216.28H1095.31V213.3H1096.93V216.28H1100.01V217.54H1096.93V222.48C1096.93 223.24 1097.09 223.82 1097.41 224.22C1097.73 224.607 1098.25 224.8 1098.97 224.8C1099.19 224.8 1099.4 224.773 1099.61 224.72C1099.83 224.667 1100.02 224.613 1100.19 224.56L1100.47 225.8C1100.3 225.893 1100.05 225.98 1099.71 226.06C1099.38 226.14 1099.06 226.18 1098.75 226.18ZM1101.64 213.86V212.04H1103.64V213.86H1101.64ZM1101.84 226V216.28H1103.46V226H1101.84ZM1110.53 226.18C1109.59 226.18 1108.77 225.973 1108.07 225.56C1107.38 225.147 1106.84 224.567 1106.45 223.82C1106.08 223.06 1105.89 222.167 1105.89 221.14C1105.89 220.113 1106.08 219.227 1106.45 218.48C1106.84 217.72 1107.38 217.133 1108.07 216.72C1108.77 216.307 1109.59 216.1 1110.53 216.1C1111.47 216.1 1112.28 216.307 1112.97 216.72C1113.68 217.133 1114.22 217.72 1114.59 218.48C1114.98 219.227 1115.17 220.113 1115.17 221.14C1115.17 222.167 1114.98 223.06 1114.59 223.82C1114.22 224.567 1113.68 225.147 1112.97 225.56C1112.28 225.973 1111.47 226.18 1110.53 226.18ZM1110.53 224.88C1111.44 224.88 1112.17 224.56 1112.71 223.92C1113.26 223.267 1113.53 222.34 1113.53 221.14C1113.53 219.927 1113.26 219 1112.71 218.36C1112.17 217.72 1111.44 217.4 1110.53 217.4C1109.61 217.4 1108.88 217.72 1108.33 218.36C1107.8 219 1107.53 219.927 1107.53 221.14C1107.53 222.34 1107.8 223.267 1108.33 223.92C1108.88 224.56 1109.61 224.88 1110.53 224.88ZM1117.61 226V216.28H1119.19V217.94C1119.51 217.327 1119.96 216.867 1120.55 216.56C1121.13 216.253 1121.79 216.1 1122.53 216.1C1124.83 216.1 1125.99 217.38 1125.99 219.94V226H1124.37V220.04C1124.37 219.133 1124.19 218.473 1123.83 218.06C1123.48 217.633 1122.92 217.42 1122.15 217.42C1121.25 217.42 1120.54 217.7 1120.01 218.26C1119.49 218.807 1119.23 219.54 1119.23 220.46V226H1117.61ZM1134.63 226V217.54H1132.71V216.28H1134.63V215.94C1134.63 214.647 1134.95 213.667 1135.59 213C1136.24 212.333 1137.24 211.96 1138.59 211.88L1139.37 211.84L1139.51 213.08L1138.59 213.14C1137.76 213.207 1137.16 213.453 1136.79 213.88C1136.43 214.307 1136.25 214.927 1136.25 215.74V216.28H1139.05V217.54H1136.25V226H1134.63ZM1144.54 226.18C1143.59 226.18 1142.77 225.973 1142.08 225.56C1141.38 225.147 1140.84 224.567 1140.46 223.82C1140.08 223.06 1139.9 222.167 1139.9 221.14C1139.9 220.113 1140.08 219.227 1140.46 218.48C1140.84 217.72 1141.38 217.133 1142.08 216.72C1142.77 216.307 1143.59 216.1 1144.54 216.1C1145.47 216.1 1146.28 216.307 1146.98 216.72C1147.68 217.133 1148.22 217.72 1148.6 218.48C1148.98 219.227 1149.18 220.113 1149.18 221.14C1149.18 222.167 1148.98 223.06 1148.6 223.82C1148.22 224.567 1147.68 225.147 1146.98 225.56C1146.28 225.973 1145.47 226.18 1144.54 226.18ZM1144.54 224.88C1145.44 224.88 1146.17 224.56 1146.72 223.92C1147.26 223.267 1147.54 222.34 1147.54 221.14C1147.54 219.927 1147.26 219 1146.72 218.36C1146.17 217.72 1145.44 217.4 1144.54 217.4C1143.62 217.4 1142.88 217.72 1142.34 218.36C1141.8 219 1141.54 219.927 1141.54 221.14C1141.54 222.34 1141.8 223.267 1142.34 223.92C1142.88 224.56 1143.62 224.88 1144.54 224.88ZM1151.61 226V216.28H1153.19V218.02C1153.71 216.847 1154.78 216.2 1156.39 216.08L1156.97 216.02L1157.09 217.42L1156.07 217.54C1155.15 217.62 1154.45 217.913 1153.97 218.42C1153.49 218.913 1153.25 219.593 1153.25 220.46V226H1151.61ZM1162.77 226L1168.99 211.9H1170.39L1176.61 226H1174.91L1173.35 222.4H1166.01L1164.47 226H1162.77ZM1169.67 213.82L1166.61 221.02H1172.77L1169.71 213.82H1169.67ZM1178.48 226V211.9H1180.1V220.6H1180.14L1184.64 216.28H1186.7L1181.82 220.96L1187.12 226H1185.06L1180.14 221.44H1180.1V226H1178.48ZM1192.61 226.18C1191.08 226.18 1189.86 225.733 1188.97 224.84C1188.08 223.933 1187.63 222.707 1187.63 221.16C1187.63 220.16 1187.83 219.28 1188.23 218.52C1188.63 217.747 1189.18 217.153 1189.87 216.74C1190.58 216.313 1191.39 216.1 1192.31 216.1C1193.63 216.1 1194.66 216.527 1195.41 217.38C1196.16 218.22 1196.53 219.38 1196.53 220.86V221.48H1189.21C1189.26 222.587 1189.58 223.433 1190.17 224.02C1190.76 224.593 1191.57 224.88 1192.61 224.88C1193.2 224.88 1193.76 224.793 1194.29 224.62C1194.82 224.433 1195.33 224.133 1195.81 223.72L1196.37 224.86C1195.93 225.273 1195.37 225.6 1194.69 225.84C1194.01 226.067 1193.32 226.18 1192.61 226.18ZM1192.35 217.3C1191.43 217.3 1190.7 217.587 1190.17 218.16C1189.64 218.733 1189.32 219.487 1189.23 220.42H1195.13C1195.09 219.433 1194.83 218.667 1194.35 218.12C1193.88 217.573 1193.22 217.3 1192.35 217.3ZM1199.88 229.6L1201.54 225.84L1197.44 216.28H1199.2L1202.42 224.16L1205.66 216.28H1207.36L1201.58 229.6H1199.88ZM1212.01 226.18C1211.03 226.18 1210.28 225.893 1209.77 225.32C1209.28 224.733 1209.03 223.887 1209.03 222.78V211.9H1210.65V222.66C1210.65 224.087 1211.22 224.8 1212.35 224.8C1212.69 224.8 1212.99 224.76 1213.25 224.68L1213.21 226.04C1212.8 226.133 1212.4 226.18 1212.01 226.18ZM1219.23 226.18C1217.7 226.18 1216.49 225.733 1215.59 224.84C1214.7 223.933 1214.25 222.707 1214.25 221.16C1214.25 220.16 1214.45 219.28 1214.85 218.52C1215.25 217.747 1215.8 217.153 1216.49 216.74C1217.2 216.313 1218.01 216.1 1218.93 216.1C1220.25 216.1 1221.29 216.527 1222.03 217.38C1222.78 218.22 1223.15 219.38 1223.15 220.86V221.48H1215.83C1215.89 222.587 1216.21 223.433 1216.79 224.02C1217.38 224.593 1218.19 224.88 1219.23 224.88C1219.82 224.88 1220.38 224.793 1220.91 224.62C1221.45 224.433 1221.95 224.133 1222.43 223.72L1222.99 224.86C1222.55 225.273 1221.99 225.6 1221.31 225.84C1220.63 226.067 1219.94 226.18 1219.23 226.18ZM1218.97 217.3C1218.05 217.3 1217.33 217.587 1216.79 218.16C1216.26 218.733 1215.95 219.487 1215.85 220.42H1221.75C1221.71 219.433 1221.45 218.667 1220.97 218.12C1220.51 217.573 1219.84 217.3 1218.97 217.3ZM1228.78 226.18C1228.02 226.18 1227.3 226.073 1226.62 225.86C1225.94 225.647 1225.38 225.347 1224.94 224.96L1225.46 223.82C1225.94 224.207 1226.46 224.493 1227.04 224.68C1227.62 224.853 1228.22 224.94 1228.82 224.94C1229.58 224.94 1230.15 224.8 1230.54 224.52C1230.92 224.24 1231.12 223.86 1231.12 223.38C1231.12 223.007 1230.99 222.713 1230.74 222.5C1230.48 222.273 1230.08 222.1 1229.54 221.98L1227.72 221.58C1226.06 221.22 1225.24 220.367 1225.24 219.02C1225.24 218.14 1225.58 217.433 1226.28 216.9C1226.98 216.367 1227.9 216.1 1229.04 216.1C1229.7 216.1 1230.34 216.207 1230.94 216.42C1231.55 216.62 1232.06 216.92 1232.46 217.32L1231.92 218.46C1231.53 218.1 1231.08 217.827 1230.56 217.64C1230.05 217.44 1229.54 217.34 1229.04 217.34C1228.29 217.34 1227.72 217.487 1227.34 217.78C1226.95 218.073 1226.76 218.46 1226.76 218.94C1226.76 219.687 1227.25 220.167 1228.24 220.38L1230.06 220.76C1230.91 220.947 1231.56 221.247 1232 221.66C1232.44 222.06 1232.66 222.607 1232.66 223.3C1232.66 224.193 1232.3 224.9 1231.6 225.42C1230.89 225.927 1229.95 226.18 1228.78 226.18ZM1238.41 226.18C1237.65 226.18 1236.93 226.073 1236.25 225.86C1235.57 225.647 1235.01 225.347 1234.57 224.96L1235.09 223.82C1235.57 224.207 1236.09 224.493 1236.67 224.68C1237.25 224.853 1237.85 224.94 1238.45 224.94C1239.21 224.94 1239.78 224.8 1240.17 224.52C1240.55 224.24 1240.75 223.86 1240.75 223.38C1240.75 223.007 1240.62 222.713 1240.37 222.5C1240.11 222.273 1239.71 222.1 1239.17 221.98L1237.35 221.58C1235.69 221.22 1234.87 220.367 1234.87 219.02C1234.87 218.14 1235.21 217.433 1235.91 216.9C1236.61 216.367 1237.53 216.1 1238.67 216.1C1239.33 216.1 1239.97 216.207 1240.57 216.42C1241.18 216.62 1241.69 216.92 1242.09 217.32L1241.55 218.46C1241.16 218.1 1240.71 217.827 1240.19 217.64C1239.68 217.44 1239.17 217.34 1238.67 217.34C1237.92 217.34 1237.35 217.487 1236.97 217.78C1236.58 218.073 1236.39 218.46 1236.39 218.94C1236.39 219.687 1236.88 220.167 1237.87 220.38L1239.69 220.76C1240.54 220.947 1241.19 221.247 1241.63 221.66C1242.07 222.06 1242.29 222.607 1242.29 223.3C1242.29 224.193 1241.93 224.9 1241.23 225.42C1240.52 225.927 1239.58 226.18 1238.41 226.18ZM1245.01 222.32L1244.51 211.9H1246.51L1246.01 222.32H1245.01ZM1244.49 226V223.96H1246.53V226H1244.49Z" fill="white"/>
</g>
<defs>
<clipPath id="clip0_819_106">
<rect width="1920" height="360" fill="white"/>
</clipPath>
</defs>
</svg>
