<svg xmlns="http://www.w3.org/2000/svg" xmlns:xlink="http://www.w3.org/1999/xlink" width="101.001" height="101.001"><defs><linearGradient id="a" x1="-.24" x2="1" y2="1" gradientUnits="objectBoundingBox"><stop offset="0" stop-color="#0064d3"/><stop offset="1" stop-color="#2f9ddb"/></linearGradient><linearGradient id="b" x1=".053" y1=".068" x2=".964" y2="1" gradientUnits="objectBoundingBox"><stop offset="0" stop-color="#0064d3"/><stop offset=".379" stop-color="#0469d4"/><stop offset="1" stop-color="#2f9ddb"/></linearGradient><linearGradient id="c" x1=".392" y1="-1.152" x2=".82" y2="1" xlink:href="#a"/></defs><g data-name="Group 7992"><g data-name="Group 7919"><circle data-name="Ellipse 425" cx="50.5" cy="50.5" r="50.5" fill="#def"/></g><g data-name="2b15752d0d7cf989dff89d40774a0105"><path data-name="Path 18993" d="M16 17.161l5.561-2.78L16 11.6z" transform="translate(32.184 31.373)" fill="url(#a)"/><path data-name="Path 18994" d="M20.5 8a8.471 8.471 0 00-8.5 8.5 8.419 8.419 0 0016.837 0A8.247 8.247 0 0020.5 8zm5.252 9.114l-8.037 4.016c-.154 0-.154.154-.309.154a.567.567 0 01-.463-.154c-.154-.309-.309-.463-.309-.772v-8.033a.8.8 0 01.309-.618.689.689 0 01.772 0l8.032 4.016a.828.828 0 01.463.618 1.054 1.054 0 01-.462.773z" transform="translate(30.005 29.413)" fill="url(#a)"/><path data-name="Path 18995" d="M45.677 2.5H6.752A5.209 5.209 0 001.5 7.752v23.324a5.209 5.209 0 005.252 5.252h38.925a5.209 5.209 0 005.252-5.252V7.752A5.209 5.209 0 0045.677 2.5zM26.215 29.377a9.963 9.963 0 119.885-9.886 9.759 9.759 0 01-9.885 9.886z" transform="translate(24.286 26.417)" fill="url(#b)"/><g data-name="Group 7920"><path data-name="Path 18996" d="M49.885 31.28a.73.73 0 01-.772.772h-32.13a4.472 4.472 0 01-4.325 3.707 4.332 4.332 0 01-4.325-3.707H2.772a.772.772 0 010-1.545h5.407A4.472 4.472 0 0112.5 26.8a4.332 4.332 0 014.325 3.707h32.133c.618 0 .927.309.927.773z" transform="translate(24.558 39.652)" fill="url(#c)"/></g></g></g></svg>